<?xml version="1.0" encoding="UTF-8"?>
<svg width="503px" height="503px" viewBox="0 0 503 503" version="1.1" xmlns="http://www.w3.org/2000/svg" xmlns:xlink="http://www.w3.org/1999/xlink">
    <!-- Generator: Sketch 55 (78076) - https://sketchapp.com -->
    <title>Group 16 Copy</title>
    <desc>Created with Sketch.</desc>
    <g id="Page-1" stroke="none" stroke-width="1" fill="none" fill-rule="evenodd">
        <g id="Group-16-Copy">
            <g id="Group-15">
                <circle id="Oval" fill-opacity="0.2" fill="#AFBDD6" cx="251.5" cy="251.5" r="251.5"></circle>
                <path d="M71,271.188199 C71.5056332,271.188199 71.9181682,271.189228 72.7922324,271.192169 C79.8954751,271.21607 82.5771086,271.028269 84.9954443,270.086492 C87.7295701,269.021737 89,267.002158 89,262.947 C89,253.149108 80.946698,245.196116 71,245.196116 C61.053302,245.196116 53,253.149108 53,262.947 C53,267.002158 54.2704299,269.021737 57.0045557,270.086492 C59.4228914,271.028269 62.1045249,271.21607 69.2077676,271.192169 C70.0818318,271.189228 70.4943668,271.188199 71,271.188199 Z" id="Oval-Copy-5" stroke="#AFBDD6" stroke-width="4" fill="#EFF2F7"></path>
                <path d="M236,434.188199 C236.505633,434.188199 236.918168,434.189228 237.792232,434.192169 C244.895475,434.21607 247.577109,434.028269 249.995444,433.086492 C252.72957,432.021737 254,430.002158 254,425.947 C254,416.149108 245.946698,408.196116 236,408.196116 C226.053302,408.196116 218,416.149108 218,425.947 C218,430.002158 219.27043,432.021737 222.004556,433.086492 C224.422891,434.028269 227.104525,434.21607 234.207768,434.192169 C235.081832,434.189228 235.494367,434.188199 236,434.188199 Z" id="Oval-Copy-8" stroke="#1F2F32" stroke-width="4" fill="#EFF2F7"></path>
                <path d="M362,395.188199 C362.505633,395.188199 362.918168,395.189228 363.792232,395.192169 C370.895475,395.21607 373.577109,395.028269 375.995444,394.086492 C378.72957,393.021737 380,391.002158 380,386.947 C380,377.149108 371.946698,369.196116 362,369.196116 C352.053302,369.196116 344,377.149108 344,386.947 C344,391.002158 345.27043,393.021737 348.004556,394.086492 C350.422891,395.028269 353.104525,395.21607 360.207768,395.192169 C361.081832,395.189228 361.494367,395.188199 362,395.188199 Z" id="Oval-Copy-11" stroke="#AFBDD6" stroke-width="4" fill="#EFF2F7"></path>
                <path d="M363,150.188199 C363.505633,150.188199 363.918168,150.189228 364.792232,150.192169 C371.895475,150.21607 374.577109,150.028269 376.995444,149.086492 C379.72957,148.021737 381,146.002158 381,141.947 C381,132.149108 372.946698,124.196116 363,124.196116 C353.053302,124.196116 345,132.149108 345,141.947 C345,146.002158 346.27043,148.021737 349.004556,149.086492 C351.422891,150.028269 354.104525,150.21607 361.207768,150.192169 C362.081832,150.189228 362.494367,150.188199 363,150.188199 Z" id="Oval-Copy-15" stroke="#AFBDD6" stroke-width="4" fill="#EFF2F7"></path>
                <path d="M101,270.992083 C101.505633,270.992083 101.918168,270.993112 102.792232,270.996053 C109.895475,271.019954 112.577109,270.832153 114.995444,269.890376 C117.72957,268.825621 119,266.806042 119,262.750884 C119,252.952992 110.946698,245 101,245 C91.053302,245 83,252.952992 83,262.750884 C83,266.806042 84.2704299,268.825621 87.0045557,269.890376 C89.4228914,270.832153 92.1045249,271.019954 99.2077676,270.996053 C100.081832,270.993112 100.494367,270.992083 101,270.992083 Z" id="Oval-Copy-5" stroke="#AFBDD6" stroke-width="4" fill="#EFF2F7"></path>
                <path d="M266,433.992083 C266.505633,433.992083 266.918168,433.993112 267.792232,433.996053 C274.895475,434.019954 277.577109,433.832153 279.995444,432.890376 C282.72957,431.825621 284,429.806042 284,425.750884 C284,415.952992 275.946698,408 266,408 C256.053302,408 248,415.952992 248,425.750884 C248,429.806042 249.27043,431.825621 252.004556,432.890376 C254.422891,433.832153 257.104525,434.019954 264.207768,433.996053 C265.081832,433.993112 265.494367,433.992083 266,433.992083 Z" id="Oval-Copy-9" stroke="#1F2F32" stroke-width="4" fill="#EFF2F7"></path>
                <path d="M392,394.992083 C392.505633,394.992083 392.918168,394.993112 393.792232,394.996053 C400.895475,395.019954 403.577109,394.832153 405.995444,393.890376 C408.72957,392.825621 410,390.806042 410,386.750884 C410,376.952992 401.946698,369 392,369 C382.053302,369 374,376.952992 374,386.750884 C374,390.806042 375.27043,392.825621 378.004556,393.890376 C380.422891,394.832153 383.104525,395.019954 390.207768,394.996053 C391.081832,394.993112 391.494367,394.992083 392,394.992083 Z" id="Oval-Copy-12" stroke="#AFBDD6" stroke-width="4" fill="#EFF2F7"></path>
                <path d="M393,149.992083 C393.505633,149.992083 393.918168,149.993112 394.792232,149.996053 C401.895475,150.019954 404.577109,149.832153 406.995444,148.890376 C409.72957,147.825621 411,145.806042 411,141.750884 C411,131.952992 402.946698,124 393,124 C383.053302,124 375,131.952992 375,141.750884 C375,145.806042 376.27043,147.825621 379.004556,148.890376 C381.422891,149.832153 384.104525,150.019954 391.207768,149.996053 C392.081832,149.993112 392.494367,149.992083 393,149.992083 Z" id="Oval-Copy-16" stroke="#AFBDD6" stroke-width="4" fill="#EFF2F7"></path>
                <ellipse id="Oval-2-Copy-7" stroke="#AFBDD6" stroke-width="4" fill="#EFF2F7" cx="101.5" cy="237" rx="8.5" ry="9"></ellipse>
                <ellipse id="Oval-2-Copy-10" stroke="#1F2F32" stroke-width="4" fill="#EFF2F7" cx="266.5" cy="400" rx="8.5" ry="9"></ellipse>
                <ellipse id="Oval-2-Copy-13" stroke="#AFBDD6" stroke-width="4" fill="#EFF2F7" cx="392.5" cy="361" rx="8.5" ry="9"></ellipse>
                <ellipse id="Oval-2-Copy-17" stroke="#AFBDD6" stroke-width="4" fill="#EFF2F7" cx="393.5" cy="116" rx="8.5" ry="9"></ellipse>
                <ellipse id="Oval-2-Copy-7" stroke="#AFBDD6" stroke-width="4" fill="#EFF2F7" cx="71.5" cy="237.196116" rx="8.5" ry="9"></ellipse>
                <ellipse id="Oval-2-Copy-11" stroke="#1F2F32" stroke-width="4" fill="#EFF2F7" cx="236.5" cy="400.196116" rx="8.5" ry="9"></ellipse>
                <ellipse id="Oval-2-Copy-14" stroke="#AFBDD6" stroke-width="4" fill="#EFF2F7" cx="362.5" cy="361.196116" rx="8.5" ry="9"></ellipse>
                <ellipse id="Oval-2-Copy-18" stroke="#AFBDD6" stroke-width="4" fill="#EFF2F7" cx="363.5" cy="116.196116" rx="8.5" ry="9"></ellipse>
                <path d="M87,276.186036 C87.6313564,276.186036 88.1466633,276.187345 89.2387331,276.191088 C98.1859835,276.221753 101.562671,275.980885 104.664093,274.750673 C108.283321,273.315067 110,270.535436 110,265.146902 C110,252.360606 99.6999177,242 87,242 C74.3000823,242 64,252.360606 64,265.146902 C64,270.535436 65.7166792,273.315067 69.3359072,274.750673 C72.4373286,275.980885 75.8140165,276.221753 84.7612669,276.191088 C85.8533367,276.187345 86.3686436,276.186036 87,276.186036 Z" id="Oval-Copy-5" stroke="#AFBDD6" stroke-width="4" fill="#EFF2F7"></path>
                <path d="M252,439.186036 C252.631356,439.186036 253.146663,439.187345 254.238733,439.191088 C263.185983,439.221753 266.562671,438.980885 269.664093,437.750673 C273.283321,436.315067 275,433.535436 275,428.146902 C275,415.360606 264.699918,405 252,405 C239.300082,405 229,415.360606 229,428.146902 C229,433.535436 230.716679,436.315067 234.335907,437.750673 C237.437329,438.980885 240.814017,439.221753 249.761267,439.191088 C250.853337,439.187345 251.368644,439.186036 252,439.186036 Z" id="Oval-Copy-10" stroke="#1F2F32" stroke-width="4" fill="#EFF2F7"></path>
                <path d="M378,400.186036 C378.631356,400.186036 379.146663,400.187345 380.238733,400.191088 C389.185983,400.221753 392.562671,399.980885 395.664093,398.750673 C399.283321,397.315067 401,394.535436 401,389.146902 C401,376.360606 390.699918,366 378,366 C365.300082,366 355,376.360606 355,389.146902 C355,394.535436 356.716679,397.315067 360.335907,398.750673 C363.437329,399.980885 366.814017,400.221753 375.761267,400.191088 C376.853337,400.187345 377.368644,400.186036 378,400.186036 Z" id="Oval-Copy-13" stroke="#AFBDD6" stroke-width="4" fill="#EFF2F7"></path>
                <path d="M379,155.186036 C379.631356,155.186036 380.146663,155.187345 381.238733,155.191088 C390.185983,155.221753 393.562671,154.980885 396.664093,153.750673 C400.283321,152.315067 402,149.535436 402,144.146902 C402,131.360606 391.699918,121 379,121 C366.300082,121 356,131.360606 356,144.146902 C356,149.535436 357.716679,152.315067 361.335907,153.750673 C364.437329,154.980885 367.814017,155.221753 376.761267,155.191088 C377.853337,155.187345 378.368644,155.186036 379,155.186036 Z" id="Oval-Copy-17" stroke="#AFBDD6" stroke-width="4" fill="#EFF2F7"></path>
                <path d="M412,276.186036 C412.631356,276.186036 413.146663,276.187345 414.238733,276.191088 C423.185983,276.221753 426.562671,275.980885 429.664093,274.750673 C433.283321,273.315067 435,270.535436 435,265.146902 C435,252.360606 424.699918,242 412,242 C399.300082,242 389,252.360606 389,265.146902 C389,270.535436 390.716679,273.315067 394.335907,274.750673 C397.437329,275.980885 400.814017,276.221753 409.761267,276.191088 C410.853337,276.187345 411.368644,276.186036 412,276.186036 Z" id="Oval-Copy-6" stroke="#1F2F32" stroke-width="4" fill="#EFF2F7"></path>
                <path d="M134,400.186036 C134.631356,400.186036 135.146663,400.187345 136.238733,400.191088 C145.185983,400.221753 148.562671,399.980885 151.664093,398.750673 C155.283321,397.315067 157,394.535436 157,389.146902 C157,376.360606 146.699918,366 134,366 C121.300082,366 111,376.360606 111,389.146902 C111,394.535436 112.716679,397.315067 116.335907,398.750673 C119.437329,399.980885 122.814017,400.221753 131.761267,400.191088 C132.853337,400.187345 133.368644,400.186036 134,400.186036 Z" id="Oval-Copy-14" stroke="#AFBDD6" stroke-width="4" fill="#EFF2F7"></path>
                <path d="M134,155.186036 C134.631356,155.186036 135.146663,155.187345 136.238733,155.191088 C145.185983,155.221753 148.562671,154.980885 151.664093,153.750673 C155.283321,152.315067 157,149.535436 157,144.146902 C157,131.360606 146.699918,121 134,121 C121.300082,121 111,131.360606 111,144.146902 C111,149.535436 112.716679,152.315067 116.335907,153.750673 C119.437329,154.980885 122.814017,155.221753 131.761267,155.191088 C132.853337,155.187345 133.368644,155.186036 134,155.186036 Z" id="Oval-Copy-18" stroke="#AFBDD6" stroke-width="4" fill="#EFF2F7"></path>
                <path d="M254,119.186036 C254.631356,119.186036 255.146663,119.187345 256.238733,119.191088 C265.185983,119.221753 268.562671,118.980885 271.664093,117.750673 C275.283321,116.315067 277,113.535436 277,108.146902 C277,95.3606064 266.699918,85 254,85 C241.300082,85 231,95.3606064 231,108.146902 C231,113.535436 232.716679,116.315067 236.335907,117.750673 C239.437329,118.980885 242.814017,119.221753 251.761267,119.191088 C252.853337,119.187345 253.368644,119.186036 254,119.186036 Z" id="Oval-Copy-7" stroke="#AFBDD6" stroke-width="4" fill="#EFF2F7"></path>
                <circle id="Oval" fill-opacity="0.8" fill="#0B2149" cx="251.5" cy="251.5" r="57.5"></circle>
                <ellipse id="Oval-2-Copy-7" stroke="#AFBDD6" stroke-width="4" fill="#EFF2F7" cx="87.5" cy="233" rx="11.5" ry="12"></ellipse>
                <ellipse id="Oval-2-Copy-12" stroke="#1F2F32" stroke-width="4" fill="#EFF2F7" cx="252.5" cy="396" rx="11.5" ry="12"></ellipse>
                <ellipse id="Oval-2-Copy-15" stroke="#AFBDD6" stroke-width="4" fill="#EFF2F7" cx="378.5" cy="357" rx="11.5" ry="12"></ellipse>
                <ellipse id="Oval-2-Copy-19" stroke="#AFBDD6" stroke-width="4" fill="#EFF2F7" cx="379.5" cy="112" rx="11.5" ry="12"></ellipse>
                <ellipse id="Oval-2-Copy-8" stroke="#1F2F32" stroke-width="4" fill="#EFF2F7" cx="412.5" cy="233" rx="11.5" ry="12"></ellipse>
                <ellipse id="Oval-2-Copy-16" stroke="#AFBDD6" stroke-width="4" fill="#EFF2F7" cx="134.5" cy="357" rx="11.5" ry="12"></ellipse>
                <ellipse id="Oval-2-Copy-20" stroke="#AFBDD6" stroke-width="4" fill="#EFF2F7" cx="134.5" cy="112" rx="11.5" ry="12"></ellipse>
                <ellipse id="Oval-2-Copy-9" stroke="#AFBDD6" stroke-width="4" fill="#EFF2F7" cx="254.5" cy="76" rx="11.5" ry="12"></ellipse>
                <g id="image-(8)" transform="translate(252.853553, 251.560660) rotate(225.000000) translate(-252.853553, -251.560660) translate(92.353553, 91.560660)">
                    <g id="Group-17" transform="translate(48.213203, 47.293000)" fill="#AFBDD6">
                        <polygon id="Path" points="189 112.707 221 112.707 221 116.707 189 116.707"></polygon>
                        <polygon id="Path" points="212.978864 102 225.707864 114.727 222.879864 117.555 210.150864 104.828"></polygon>
                        <polygon id="Path" points="210.150864 124.727 222.877864 112.001 225.705864 114.829 212.978864 127.557"></polygon>
                        <polygon id="Path" transform="translate(112.493903, 204.213097) rotate(-270.000000) translate(-112.493903, -204.213097) " points="96.4939033 202.213097 128.493903 202.213097 128.493903 206.213097 96.4939033 206.213097"></polygon>
                        <polygon id="Path" transform="translate(117.423403, 217.142461) rotate(-270.000000) translate(-117.423403, -217.142461) " points="112.472903 209.364961 125.201903 222.091961 122.373903 224.919961 109.644903 212.192961"></polygon>
                        <polygon id="Path" transform="translate(107.421903, 217.141461) rotate(-270.000000) translate(-107.421903, -217.141461) " points="99.6444033 222.089461 112.371403 209.363461 115.199403 212.191461 102.472403 224.919461"></polygon>
                        <polygon id="Path" transform="translate(114.376640, 21.493797) rotate(-90.000000) translate(-114.376640, -21.493797) " points="98.3766403 19.4937966 130.37664 19.4937966 130.37664 23.4937966 98.3766403 23.4937966"></polygon>
                        <polygon id="Path" transform="translate(109.447140, 8.564432) rotate(-90.000000) translate(-109.447140, -8.564432) " points="104.49664 0.786932188 117.22564 13.5139322 114.39764 16.3419322 101.66864 3.61493219"></polygon>
                        <polygon id="Path" transform="translate(119.448640, 8.565432) rotate(-90.000000) translate(-119.448640, -8.565432) " points="111.67114 13.5134322 124.39814 0.787432188 127.22614 3.61543219 114.49914 16.3434322"></polygon>
                        <polygon id="Path" transform="translate(21.573593, 112.117156) rotate(-180.000000) translate(-21.573593, -112.117156) " points="5.57359313 110.117156 37.5735931 110.117156 37.5735931 114.117156 5.57359313 114.117156"></polygon>
                        <polygon id="Path" transform="translate(8.644229, 117.046656) rotate(-180.000000) translate(-8.644229, -117.046656) " points="3.69372875 109.269156 16.4227288 121.996156 13.5947288 124.824156 0.865728753 112.097156"></polygon>
                        <polygon id="Path" transform="translate(8.645229, 107.045156) rotate(-180.000000) translate(-8.645229, -107.045156) " points="0.867728753 111.993156 13.5947288 99.2671563 16.4227288 102.095156 3.69572875 114.823156"></polygon>
                    </g>
                    <g id="Group-17" transform="translate(160.506403, 160.146447) rotate(45.000000) translate(-160.506403, -160.146447) translate(47.506403, 47.146447)">
                        <polygon id="Path" fill="#AFBDD6" points="189 112.707 221 112.707 221 116.707 189 116.707"></polygon>
                        <polygon id="Path" fill="#AFBDD6" points="212.978864 102 225.707864 114.727 222.879864 117.555 210.150864 104.828"></polygon>
                        <polygon id="Path" fill="#AFBDD6" points="210.150864 124.727 222.877864 112.001 225.705864 114.829 212.978864 127.557"></polygon>
                        <g id="Group-18" transform="translate(112.493903, 206.713097) rotate(180.000000) translate(-112.493903, -206.713097) translate(99.493903, 188.213097)" fill="#1F2F32">
                            <polygon id="Path" transform="translate(13.000000, 16.000000) rotate(-90.000000) translate(-13.000000, -16.000000) " points="-3 14 29 14 29 18 -3 18"></polygon>
                            <polygon id="Path" transform="translate(17.929500, 28.929364) rotate(-90.000000) translate(-17.929500, -28.929364) " points="12.979 21.1518644 25.708 33.8788644 22.88 36.7068644 10.151 23.9798644"></polygon>
                            <polygon id="Path" transform="translate(7.928000, 28.928364) rotate(-90.000000) translate(-7.928000, -28.928364) " points="0.1505 33.8763644 12.8775 21.1503644 15.7055 23.9783644 2.9785 36.7063644"></polygon>
                        </g>
                        <polygon id="Path" fill="#AFBDD6" transform="translate(114.376640, 21.493797) rotate(-90.000000) translate(-114.376640, -21.493797) " points="98.3766403 19.4937966 130.37664 19.4937966 130.37664 23.4937966 98.3766403 23.4937966"></polygon>
                        <polygon id="Path" fill="#AFBDD6" transform="translate(109.447140, 8.564432) rotate(-90.000000) translate(-109.447140, -8.564432) " points="104.49664 0.786932188 117.22564 13.5139322 114.39764 16.3419322 101.66864 3.61493219"></polygon>
                        <polygon id="Path" fill="#AFBDD6" transform="translate(119.448640, 8.565432) rotate(-90.000000) translate(-119.448640, -8.565432) " points="111.67114 13.5134322 124.39814 0.787432188 127.22614 3.61543219 114.49914 16.3434322"></polygon>
                        <g id="Group-19" transform="translate(19.365729, 112.267156) rotate(180.000000) translate(-19.365729, -112.267156) translate(0.865729, 99.267156)" fill="#1F2F32">
                            <polygon id="Path" transform="translate(20.707864, 12.850000) rotate(-180.000000) translate(-20.707864, -12.850000) " points="4.70786438 10.85 36.7078644 10.85 36.7078644 14.85 4.70786438 14.85"></polygon>
                            <polygon id="Path" transform="translate(7.778500, 17.779500) rotate(-180.000000) translate(-7.778500, -17.779500) " points="2.828 10.002 15.557 22.729 12.729 25.557 -1.05693232e-13 12.83"></polygon>
                            <polygon id="Path" transform="translate(7.779500, 7.778000) rotate(-180.000000) translate(-7.779500, -7.778000) " points="0.00200000001 12.726 12.729 -2.06945572e-13 15.557 2.828 2.83 15.556"></polygon>
                        </g>
                    </g>
                </g>
                <g id="image-(8)" transform="translate(319.321591, 185.092623) rotate(-45.000000) translate(-319.321591, -185.092623) translate(300.321591, 171.592623)"></g>
                <g id="image-(8)-copy" transform="translate(185.261327, 316.197402) rotate(135.000000) translate(-185.261327, -316.197402) translate(166.761327, 303.197402)"></g>
                <g id="image-(8)-copy" transform="translate(318.197402, 317.738673) rotate(45.000000) translate(-318.197402, -317.738673) translate(299.697402, 304.738673)"></g>
                <rect id="Rectangle" fill="#E5A047" x="226" y="242" width="30" height="30" rx="15"></rect>
                <rect id="Rectangle-Copy-2" fill="#14B7BD" x="236" y="226" width="30" height="30" rx="15"></rect>
                <rect id="Rectangle-Copy" fill="#E33A6C" x="244" y="242" width="30" height="30" rx="15"></rect>
            </g>
        </g>
    </g>
</svg>