<?xml version="1.0" standalone="no"?>
<!DOCTYPE svg PUBLIC "-//W3C//DTD SVG 20010904//EN"
 "http://www.w3.org/TR/2001/REC-SVG-20010904/DTD/svg10.dtd">
<svg version="1.0" xmlns="http://www.w3.org/2000/svg"
 width="700.000000pt" height="700.000000pt" viewBox="0 0 700.000000 700.000000"
 preserveAspectRatio="xMidYMid meet">
<metadata>
Created by potrace 1.11, written by Peter Selinger 2001-2013
</metadata>
<g transform="translate(0.000000,700.000000) scale(0.100000,-0.100000)"
fill="#000000" stroke="none">
<path d="M1161 5614 c-11 -14 -25 -49 -30 -77 -132 -656 -791 -4074 -791
-4099 0 -23 8 -42 23 -56 23 -22 27 -22 414 -22 365 0 392 1 414 18 20 17 58
202 425 2088 222 1138 404 2081 404 2095 0 15 -9 38 -21 53 l-20 26 -399 0
-399 0 -20 -26z"/>
<path d="M3485 5615 c-14 -13 -25 -29 -25 -34 0 -6 -180 -935 -400 -2065 -220
-1129 -400 -2065 -400 -2078 0 -14 9 -37 21 -52 l21 -26 400 2 401 3 18 25
c14 18 126 578 419 2086 220 1134 400 2075 400 2091 0 18 -9 38 -23 51 -23 22
-27 22 -416 22 l-392 0 -24 -25z"/>
<path d="M5809 5622 c-20 -17 -58 -202 -425 -2088 -222 -1138 -404 -2081 -404
-2095 0 -15 9 -38 21 -53 l21 -26 400 2 401 3 18 25 c14 18 124 566 419 2081
220 1131 400 2072 400 2091 0 23 -8 42 -23 56 -23 22 -27 22 -414 22 -365 0
-392 -1 -414 -18z"/>
<path d="M2119 4465 c-15 -8 -29 -22 -33 -30 -10 -28 -246 -1267 -246 -1296 0
-14 9 -38 21 -53 l20 -26 390 0 c247 0 397 4 409 10 11 6 24 18 29 28 10 19
251 1266 251 1299 0 35 -11 53 -41 68 -41 22 -761 21 -800 0z"/>
<path d="M4314 3833 c-12 -2 -29 -12 -38 -22 -20 -22 -149 -664 -140 -693 3
-10 15 -28 27 -38 20 -19 37 -20 410 -20 229 0 396 4 406 10 28 15 36 44 101
378 56 291 59 314 46 341 -9 16 -29 34 -47 40 -31 11 -714 14 -765 4z"/>
</g>
</svg>
