<?xml version="1.0" standalone="no"?>
<!DOCTYPE svg PUBLIC "-//W3C//DTD SVG 20010904//EN"
 "http://www.w3.org/TR/2001/REC-SVG-20010904/DTD/svg10.dtd">
<svg version="1.0" xmlns="http://www.w3.org/2000/svg"
 width="896.000000pt" height="896.000000pt" viewBox="0 0 896.000000 896.000000"
 preserveAspectRatio="xMidYMid meet">
<metadata>
Created by potrace 1.11, written by Peter Selinger 2001-2013
</metadata>
<g transform="translate(0.000000,896.000000) scale(0.100000,-0.100000)"
fill="#000000" stroke="none">
<path d="M2800 7395 c-408 -56 -753 -232 -1035 -527 -246 -256 -395 -553 -461
-913 -25 -139 -26 -457 -1 -606 60 -357 199 -688 440 -1049 342 -511 857
-1047 1982 -2065 171 -154 410 -373 532 -488 l223 -208 262 238 c1248 1129
1704 1570 2083 2013 496 578 747 1049 832 1559 25 149 24 467 -1 606 -66 361
-223 669 -470 924 -471 485 -1169 652 -1835 439 -287 -92 -537 -243 -758 -461
l-113 -111 -112 110 c-263 257 -562 423 -908 503 -208 49 -464 63 -660 36z"/>
</g>
</svg>
