<?xml version="1.0" encoding="utf-8"?>
<!-- Generator: Adobe Illustrator 23.0.6, SVG Export Plug-In . SVG Version: 6.00 Build 0)  -->
<svg version="1.1" id="Capa_1" xmlns="http://www.w3.org/2000/svg" xmlns:xlink="http://www.w3.org/1999/xlink" x="0px" y="0px"
	 viewBox="0 0 512 512" style="enable-background:new 0 0 512 512;" xml:space="preserve">
<style type="text/css">
	.st0{fill:#B4B8C2;}
	.st1{fill:#616B7E;}
	.st2{fill:#C9CDD8;}
	.st3{fill:#A1ABBC;}
	.st4{fill:#53DCFF;}
	.st5{fill:#FF4F19;}
	.st6{fill:#E9001E;}
	.st7{fill:#B3F4FF;}
</style>
<g>
	<g>
		<g>
			<path class="st0" d="M317,306.8c0.4-3.4,2.8-6.2,6.1-7c3.3-0.8,6.8,0.6,8.6,3.5l49,76.6c7.4,11.6,11.3,24.9,11.3,38.7V504
				c0,3.4-2.1,6.4-5.3,7.5c-0.9,0.3-1.8,0.5-2.7,0.5c-2.4,0-4.6-1-6.2-2.9l-70.3-85.9c-1.3-1.6-2-3.8-1.8-5.9L317,306.8z"/>
		</g>
		<g>
			<path class="st1" d="M195,306.8c-0.4-3.4-2.8-6.2-6.1-7c-3.3-0.8-6.8,0.6-8.6,3.5l-49,76.6c-7.4,11.6-11.3,24.9-11.3,38.7V504
				c0,3.4,2.1,6.4,5.3,7.5c0.9,0.3,1.8,0.5,2.7,0.5c2.4,0,4.6-1,6.2-2.9l70.3-85.9c1.3-1.6,2-3.8,1.8-5.9L195,306.8z"/>
		</g>
		<g>
			<path class="st2" d="M260.1,1.1c-2.5-1.5-5.7-1.5-8.2,0C248.5,3.2,168,52.7,168,160c0,43.3,10.8,158.6,25,268.1
				c2.1,15.9,15.7,27.9,31.7,27.9h62.5c16,0,29.6-12,31.7-27.9c14.3-109.5,25-224.8,25-268.1C344,52.7,263.5,3.2,260.1,1.1z"/>
		</g>
		<g>
			<path class="st3" d="M256,456h-31.3c-16,0-29.6-12-31.7-27.9c-14.3-109.5-25-224.8-25-268.1C168,52.7,248.5,3.2,251.9,1.1
				c1.3-0.8,2.7-1.1,4.1-1.1h0L256,456L256,456z"/>
		</g>
		<g>
			<circle class="st4" cx="256" cy="168" r="48"/>
		</g>
		<g>
			<g>
				<path class="st0" d="M256,512c-4.4,0-8-3.6-8-8V312c0-4.4,3.6-8,8-8s8,3.6,8,8v192C264,508.4,260.4,512,256,512z"/>
			</g>
		</g>
		<g>
			<path class="st5" d="M251.9,1.1c-2.3,1.4-39,24-63.1,70.9h134.4c-24.1-46.9-60.8-69.5-63.1-70.9C257.6-0.4,254.4-0.4,251.9,1.1z"
				/>
		</g>
		<g>
			<path class="st6" d="M256,0c-1.4,0-2.9,0.4-4.1,1.1c-2.3,1.4-39,24-63.1,70.9H256V0z"/>
		</g>
		<g>
			<path class="st7" d="M304,168c0-26.5-21.5-48-48-48v96C282.5,216,304,194.5,304,168z"/>
		</g>
	</g>
	<g>
		<g>
			<path class="st1" d="M256,224c-30.9,0-56-25.1-56-56s25.1-56,56-56s56,25.1,56,56S286.9,224,256,224z M256,128
				c-22.1,0-40,17.9-40,40s17.9,40,40,40s40-17.9,40-40S278.1,128,256,128z"/>
		</g>
	</g>
</g>
</svg>
