<?xml version="1.0" encoding="utf-8"?>
<!-- Generator: Adobe Illustrator 23.0.6, SVG Export Plug-In . SVG Version: 6.00 Build 0)  -->
<svg version="1.1" id="Layer_1" xmlns="http://www.w3.org/2000/svg" xmlns:xlink="http://www.w3.org/1999/xlink" x="0px" y="0px"
	 viewBox="0 0 2174 914.9" style="enable-background:new 0 0 2174 914.9;" xml:space="preserve">
<style type="text/css">
	.st0{fill-rule:evenodd;clip-rule:evenodd;fill:#E6F6FF;}
	.st1{fill:#F5F6FB;}
	.st2{fill:#A2ABBC;}
	.st3{opacity:0.1;clip-path:url(#SVGID_2_);}
	.st4{opacity:0.5;}
	.st5{fill:#FFFFFF;}
	.st6{opacity:0.1;clip-path:url(#SVGID_4_);}
	.st7{opacity:0.8;clip-path:url(#SVGID_6_);fill:#FFFFFF;}
	.st8{opacity:0.1;}
	.st9{opacity:5.000000e-02;}
	.st10{fill:#CACDD8;}
	.st11{opacity:0.1;clip-path:url(#SVGID_8_);}
	.st12{fill-rule:evenodd;clip-rule:evenodd;fill:#F5F6FB;}
	.st13{opacity:0.6;clip-path:url(#SVGID_12_);fill:#FFFFFF;}
	.st14{opacity:0.6;clip-path:url(#SVGID_14_);fill:#FFFFFF;}
	.st15{display:none;}
	.st16{display:inline;}
	.st17{fill:#0A4B99;}
	.st18{clip-path:url(#SVGID_16_);}
	.st19{clip-path:url(#SVGID_18_);fill:#A59A13;}
	.st20{opacity:0.5;clip-path:url(#SVGID_16_);}
	.st21{fill:#0A5CE0;}
	.st22{clip-path:url(#SVGID_20_);fill:#EAE421;}
	.st23{display:inline;fill:#C0CADD;}
	.st24{opacity:5.000000e-02;clip-path:url(#SVGID_22_);}
	.st25{opacity:0.1;fill:#1A3034;}
	.st26{fill:#BABAB3;}
	.st27{fill:#E8E8E2;}
	.st28{fill:#1A3034;}
	.st29{fill:#1A3034;stroke:#1A3034;stroke-linecap:round;stroke-linejoin:round;stroke-miterlimit:10;}
</style>
<circle class="st0" cx="2117.1" cy="670.8" r="476.7"/>
<path class="st1" d="M1458.1,49.6c8.6-16.8,25.8-28.1,44.1-31.7c16.8-3.2,35-0.4,49.5,8.9c13.5,8,23.5,21.8,26.6,37.3
	c11.7-3.1,23.9-5.7,36-3.4c16.5,2.5,32.7,11.3,41.5,25.9c4.3,6.7,6.1,14.6,6.6,22.4c11.4,0.4,23.2,2.8,32.5,9.7c5,4,9.3,10.2,8,17
	c-1.3,8-8.4,13.4-15.2,16.7c-17.1,7.7-37.7,7.2-54.4-1.2c-11.8,5.4-24.9,7.5-37.8,6.3c-9,15.5-25.4,26.1-43,29.2
	c-21.5,4.6-44.8-2.4-60.7-17.6c-15.6,8.1-34.8,9.3-51.2,2.7c-12.6-5-23.6-15.1-27.8-28.2c-3.7-11.6-1.1-24.8,6.4-34.3
	c8.3-11.1,21.6-17.6,35.1-19.7C1450.8,76.4,1451.5,61.8,1458.1,49.6z"/>
<path class="st1" d="M1337.8,456.5c6.4-12.5,19.1-20.8,32.6-23.5c12.5-2.3,25.9-0.3,36.7,6.6c10,6,17.4,16.2,19.7,27.6
	c8.7-2.3,17.7-4.2,26.7-2.5c12.2,1.9,24.2,8.4,30.8,19.2c3.2,4.9,4.5,10.8,4.9,16.6c8.5,0.3,17.2,2.1,24.1,7.2
	c3.7,3,6.9,7.6,5.9,12.6c-1,5.9-6.2,9.9-11.3,12.4c-12.7,5.7-27.9,5.3-40.3-0.9c-8.8,4-18.4,5.6-28,4.7
	c-6.7,11.5-18.8,19.3-31.8,21.6c-16,3.4-33.2-1.8-45-13c-11.6,6-25.8,6.9-37.9,2c-9.3-3.7-17.5-11.2-20.6-20.9
	c-2.8-8.6-0.8-18.4,4.8-25.4c6.2-8.2,16-13,26-14.6C1332.3,476.4,1332.8,465.5,1337.8,456.5z"/>
<path class="st2" d="M1288.4,866.2c83.7-101.6,80.2-222.7,128.3-286.9c48.1-64.1,32.1-147.9,73-201.3s78.4-65.9,105.1-94.4
	s30.3,36.3,57,57.4s33.9,181.4,64.1,218.8c30.3,37.4,53.5,167.5,53.5,208.5S1288.4,866.2,1288.4,866.2z"/>
<g>
	<defs>
		<path id="SVGID_1_" d="M1288.4,866.2c83.7-101.6,80.2-222.7,128.3-286.9c48.1-64.1,32.1-147.9,73-201.3s78.4-65.9,105.1-94.4
			s30.3,36.3,57,57.4s33.9,181.4,64.1,218.8c30.3,37.4,53.5,167.5,53.5,208.5S1288.4,866.2,1288.4,866.2z"/>
	</defs>
	<clipPath id="SVGID_2_">
		<use xlink:href="#SVGID_1_"  style="overflow:visible;"/>
	</clipPath>
	<path class="st3" d="M1284.5,778.2c161.8,9.1,406.8-136.8,492.2-138.1s-32.4,252.5-32.4,252.5l-619.9,23.8L1284.5,778.2z"/>
</g>
<g class="st4">
	<path class="st5" d="M1514.7,417.2l14.3,49.9l16-28.5l17.8,57l30.3-78.4l10.7,39.2l19.6-24.9l24.9,64.1L1659,435l26.7,25.7
		c-10.1-52.9-18.9-108.1-33.9-119.8c-26.7-21-30.3-85.9-57-57.4c-26.7,28.5-64.1,41-105.1,94.4c-13.4,17.5-20.7,38.3-26.2,60.5
		l26.2,42.8L1514.7,417.2z"/>
</g>
<g>
	<defs>
		<path id="SVGID_3_" d="M1849.7,911.6c43.5-99.6,51.6-370.3,101.9-464.3c50.3-94,117.5-60.2,137.2-39.5
			c19.8,20.7,85,227.5,85,227.5l19.8,293.3L2131,998L1849.7,911.6z"/>
	</defs>
	<use xlink:href="#SVGID_3_"  style="overflow:visible;fill:#6C778C;"/>
	<clipPath id="SVGID_4_">
		<use xlink:href="#SVGID_3_"  style="overflow:visible;"/>
	</clipPath>
	<path class="st6" d="M1875.5,613c161.1-18.4,316-1.5,358.9,99.7s-62.9,130.4-62.9,130.4l-331-95.1L1875.5,613z"/>
</g>
<g class="st4">
	<path class="st5" d="M1954.8,499.2l14.3,39.2l25.9-42.8l13.3,32.1l26.7-32.1l28.5,42.8l16-51.7l23.2,51.7l10.7-39.2l21.7,19.6
		c-17.8-50.9-37-101.3-46.3-111c-19.8-20.7-87-54.5-137.2,39.5c-9.3,17.5-17.2,41-24.2,68.4l11.3,22.7L1954.8,499.2z"/>
</g>
<g>
	<defs>
		<path id="SVGID_5_" d="M1954.8,499.2l14.3,39.2l25.9-42.8l13.3,32.1l26.7-32.1l28.5,42.8l16-51.7l23.2,51.7l10.7-39.2l21.7,19.6
			c-17.8-50.9-37-101.3-46.3-111c-19.8-20.7-87-54.5-137.2,39.5c-9.3,17.5-17.2,41-24.2,68.4l11.3,22.7L1954.8,499.2z"/>
	</defs>
	<clipPath id="SVGID_6_">
		<use xlink:href="#SVGID_5_"  style="overflow:visible;"/>
	</clipPath>
	<polygon class="st7" points="1945.3,431.3 1987.5,435.9 2021.6,431.3 2048.8,439.9 2071.8,435.6 2091,439.9 2101.5,433.2 
		2104.4,411.5 2057.7,368.4 1977.5,368.4 1940,386.8 	"/>
</g>
<g>
	<path class="st8" d="M2024,731.2c-14.3-51.7,0-276.2-41-317.1c-1.4-1.4-2.8-3.1-4.1-4.9c-9.4,9.3-18.6,21.8-27.3,38
		c-50.3,94-58.4,364.7-101.9,464.3l68.1,20.9H2024C2024,932.5,2038.2,782.8,2024,731.2z"/>
</g>
<g>
	<polygon class="st9" points="1604.9,541.8 1638.2,469.5 1631.3,451.9 	"/>
	<polygon class="st9" points="1575.6,462.6 1568.4,563.7 1597.1,431.8 1593.1,417.2 	"/>
	<polygon class="st9" points="1514.7,417.2 1513.2,421.2 1514,566.2 1535.8,454.9 1529,467.1 	"/>
	<polygon class="st9" points="1474.3,456 1484,558 1491.2,477.8 1489.8,481.4 	"/>
</g>
<path class="st10" d="M1537.9,909c90.9-158.6,82-418.7,103.3-523.8s69.5-183.5,94.4-228.1c24.9-44.5,89.1-39.9,131.8-20.8
	c42.8,19,39.2,213.2,80.2,254.2s26.7,265.5,41,317.1s0,201.3,0,201.3H1537.9z"/>
<g>
	<defs>
		<path id="SVGID_7_" d="M1537.9,909c90.9-158.6,82-418.7,103.3-523.8s69.5-183.5,94.4-228.1c24.9-44.5,89.1-39.9,131.8-20.8
			c42.8,19,39.2,213.2,80.2,254.2s26.7,265.5,41,317.1s0,201.3,0,201.3H1537.9z"/>
	</defs>
	<clipPath id="SVGID_8_">
		<use xlink:href="#SVGID_7_"  style="overflow:visible;"/>
	</clipPath>
	<path class="st11" d="M1535.6,740.3c164.1-44.5,348.7-107.5,429.7-69.1c81.1,38.4,70.3,185.7,70.3,185.7l-423.4,82.8L1479,887.2
		L1535.6,740.3z"/>
</g>
<path class="st5" d="M2085.5,228.2c4.3-8.4,12.9-14.1,22-15.8c8.4-1.6,17.5-0.2,24.8,4.4c6.8,4,11.8,10.9,13.3,18.7
	c5.8-1.6,12-2.9,18-1.7c8.3,1.3,16.4,5.7,20.8,12.9c2.1,3.3,3.1,7.3,3.3,11.2c5.7,0.2,11.6,1.4,16.3,4.9c2.5,2,4.7,5.1,4,8.5
	c-0.7,4-4.2,6.7-7.6,8.4c-8.6,3.8-18.8,3.6-27.2-0.6c-5.9,2.7-12.5,3.8-18.9,3.2c-4.5,7.8-12.7,13-21.5,14.6
	c-10.8,2.3-22.4-1.2-30.4-8.8c-7.8,4.1-17.4,4.6-25.6,1.3c-6.3-2.5-11.8-7.5-13.9-14.1c-1.9-5.8-0.5-12.4,3.2-17.2
	c4.2-5.6,10.8-8.8,17.6-9.9C2081.8,241.6,2082.2,234.3,2085.5,228.2z"/>
<g class="st4">
	<path class="st5" d="M1724.9,276.5v49.9l41.5-65.9l22.7,80.5l37.4-50.5l32.1,37.7l24.9-51.7l19.6,64.5l17-21.2
		c-15.5-72.2-22.8-170.3-52.6-183.5c-42.8-19-106.9-23.7-131.8,20.8c-16,28.5-41.5,71-63.4,125.5l11.7,33.1L1724.9,276.5z"/>
</g>
<g>
	<defs>
		<path id="SVGID_9_" d="M1537.9,909c90.9-158.6,82-418.7,103.3-523.8s69.5-183.5,94.4-228.1c24.9-44.5,89.1-39.9,131.8-20.8
			c42.8,19,39.2,213.2,80.2,254.2s26.7,265.5,41,317.1s0,201.3,0,201.3H1537.9z"/>
	</defs>
	<clipPath id="SVGID_10_">
		<use xlink:href="#SVGID_9_"  style="overflow:visible;"/>
	</clipPath>
</g>
<path class="st12" d="M-194,770.4l187,294l1317,79l1097-215c0,0,96.9-488.1-154-507.7c-116.1-9.1-45.6,431.3-133.4,402.7
	c-57.1-18.6-186.1-155.6-313.7-127.9c-237.4,51.5-421.2,192.4-629,120s-415.8-70.2-567.3-18.6s-316.6,91.7-474.3,87.8
	C22.1,881.8,0,746.5,0,522.3C-301.6,466.1-194,770.4-194,770.4z"/>
<g>
	<defs>
		<path id="SVGID_11_" d="M1514.7,417.2l14.3,49.9l16-28.5l17.8,57l30.3-78.4l10.7,39.2l19.6-24.9l24.9,64.1L1659,435l26.7,25.7
			c-10.1-52.9-18.9-108.1-33.9-119.8c-26.7-21-30.3-85.9-57-57.4c-26.7,28.5-64.1,41-105.1,94.4c-13.4,17.5-20.7,38.3-26.2,60.5
			l26.2,42.8L1514.7,417.2z"/>
	</defs>
	<clipPath id="SVGID_12_">
		<use xlink:href="#SVGID_11_"  style="overflow:visible;"/>
	</clipPath>
	<polygon class="st13" points="1529,319.2 1543.4,344.5 1568,336.1 1580.1,344.5 1609.6,338.2 1636.7,340.5 1650,333 1644.6,280.9 
		1603.7,260.2 	"/>
</g>
<g>
	<defs>
		<path id="SVGID_13_" d="M1724.9,276.5v49.9l41.5-65.9l22.7,80.5l37.4-50.5l32.1,37.7l24.9-51.7l19.6,64.5l17-21.2
			c-15.5-72.2-22.8-170.3-52.6-183.5c-42.8-19-106.9-23.7-131.8,20.8c-16,28.5-41.5,71-63.4,125.5l11.7,33.1L1724.9,276.5z"/>
	</defs>
	<clipPath id="SVGID_14_">
		<use xlink:href="#SVGID_13_"  style="overflow:visible;"/>
	</clipPath>
	<polygon class="st14" points="1721.3,152.8 1755.9,165.1 1786.5,162 1826.9,171.2 1867.8,162 1883.2,171.2 1893.1,165.8 
		1893.1,116.5 1804.2,99.1 1732.1,110.4 	"/>
</g>
<g class="st15">
	<g class="st16">
		<path class="st17" d="M1873.6,82.8l-24.6,3.9c-0.8,0.1-1.4-1-1.4-2.5v-57c0-1.5,0.6-2.8,1.4-2.9l24.6-3.9c0.8-0.1,2.5,1,2.5,2.5
			v57C1876.1,81.3,1874.3,82.7,1873.6,82.8z"/>
		<g>
			<defs>
				<path id="SVGID_15_" d="M1874.7,82.8l-25.8,3.9c-0.8,0.1-1.4-1-1.4-2.5v-57c0-1.5,0.6-2.8,1.4-2.9l25.8-3.9
					c0.8-0.1,1.4,1,1.4,2.5v57C1876.1,81.3,1875.5,82.7,1874.7,82.8z"/>
			</defs>
			<clipPath id="SVGID_16_">
				<use xlink:href="#SVGID_15_"  style="overflow:visible;"/>
			</clipPath>
			<g class="st18">
				<defs>
					<path id="SVGID_17_" d="M1874.7,82.8l-25.8,3.9c-0.8,0.1-1.4-1-1.4-2.5v-57c0-1.5,0.6-2.8,1.4-2.9l25.8-3.9
						c0.8-0.1,1.4,1,1.4,2.5v57C1876.1,81.3,1875.5,82.7,1874.7,82.8z"/>
				</defs>
				<clipPath id="SVGID_18_">
					<use xlink:href="#SVGID_17_"  style="overflow:visible;"/>
				</clipPath>
				<polygon class="st19" points="1911,39 1900.9,40.5 1900.9,15.8 1886.4,12.7 1886.4,42.7 1836.2,50.3 1836.2,64.8 1886.4,57.2 
					1886.4,87.5 1900.9,90.6 1900.9,55 1911,53.5 				"/>
			</g>
			<polygon class="st20" points="1840.5,81.1 1840.5,100.5 1841.9,93.7 1854.8,77.8 1851.6,67.7 1840,73.3 			"/>
		</g>
		<path class="st21" d="M1852.6,79.2l-51.5,7.8c-1.5,0.2-2.7-0.8-2.7-2.3v-57c0-1.5,1.2-2.9,2.7-3.1l51.5-7.8
			c1.5-0.2,2.7,0.8,2.7,2.3v57C1855.4,77.6,1854.1,79,1852.6,79.2z"/>
		<g>
			<defs>
				<path id="SVGID_19_" d="M1852.6,79.2l-51.5,7.8c-1.5,0.2-2.7-0.8-2.7-2.3v-57c0-1.5,1.2-2.9,2.7-3.1l51.5-7.8
					c1.5-0.2,2.7,0.8,2.7,2.3v57C1855.4,77.6,1854.1,79,1852.6,79.2z"/>
			</defs>
			<clipPath id="SVGID_20_">
				<use xlink:href="#SVGID_19_"  style="overflow:visible;"/>
			</clipPath>
			<polygon class="st22" points="1856.1,39.9 1846,41.5 1846,16.8 1831.5,13.7 1831.5,43.7 1781.2,51.3 1781.2,65.8 1831.5,58.2 
				1831.5,88.5 1846,91.6 1846,56 1856.1,54.5 			"/>
		</g>
	</g>
	<path class="st23" d="M1796.8,141.6h2.4c0.7,0,1.2-0.5,1.2-1.2V24c0-0.7-0.5-1.2-1.2-1.2h-2.4c-0.7,0-1.2,0.5-1.2,1.2v116.4
		C1795.5,141,1796.1,141.6,1796.8,141.6z"/>
	<g class="st16">
		<defs>
			<path id="SVGID_21_" d="M1724.9,276.5v49.9l41.5-65.9l22.7,80.5l37.4-50.5l32.1,37.7l24.9-51.7l19.6,64.5l17-21.2
				c-15.5-72.2-22.8-170.3-52.6-183.5c-42.8-19-106.9-23.7-131.8,20.8c-16,28.5-41.5,71-63.4,125.5l11.7,33.1L1724.9,276.5z"/>
		</defs>
		<clipPath id="SVGID_22_">
			<use xlink:href="#SVGID_21_"  style="overflow:visible;"/>
		</clipPath>
		<g class="st24">
			<path d="M1796.5,139.8l1.5,1.3c0.6,0.5,1.5,0.4,2-0.2l75.8-24.6c-2-0.2-4.1-0.3-6.1-0.4l-73.4,21.8
				C1795.8,138.4,1795.9,139.3,1796.5,139.8z"/>
		</g>
	</g>
</g>
<g class="st9">
	<polygon points="1800.3,325.8 1795.5,409.2 1817.6,302.4 	"/>
	<polygon points="1724.9,276.5 1696.5,303.6 1704.3,432.1 1724.9,285.5 	"/>
	<polygon points="1766.4,260.4 1744.3,295.5 1759.8,439.3 1776.7,297 	"/>
	<polygon points="1842.6,309.4 1849.7,394.3 1857.8,327.2 	"/>
	<polygon points="1886,284.8 1879,373.8 1893,307.6 	"/>
</g>
<g class="st9">
	<polygon points="2008.2,527.7 1995,495.6 1993.8,497.6 2007.1,571.3 2010.4,525.1 	"/>
	<polygon points="1973.8,530.6 1979.8,584.1 1986.3,510 	"/>
	<polygon points="2035,495.6 2025.1,507.4 2030.3,589.8 2035.2,496 	"/>
	<polygon points="2102.7,538.4 2079.5,486.7 2078.9,488.7 2106.7,580 2106.7,523.4 	"/>
	<polygon points="2063.5,538.4 2062.1,536.3 2070.6,584.9 2070.6,515.5 	"/>
</g>
<g>
	<ellipse class="st25" cx="1832.3" cy="142.7" rx="18.5" ry="2.7"/>
	<ellipse class="st25" cx="1781.3" cy="142.7" rx="18.5" ry="2.7"/>
	<path class="st26" d="M1825.5,110.5c-0.6,9.6,1.1,24.3-1.3,26s-4.1,0.8-5.3,2.5c-1.2,1.6-1.7,3.3-0.9,3.3s17,0,17,0v-24.9
		L1825.5,110.5z"/>
	<path class="st26" d="M1767.5,104c0,0,6.2,31.2,5.3,32.7c-0.9,1.6-3.5,1-4.3,3.7c-0.8,2.7-0.5,1.8,1,1.8c1.5,0,5.1,0,5.1,0
		l10.1-0.7v-7.7l-2.4-25.4L1767.5,104z"/>
	<path class="st27" d="M1824.1,143.9c2.1-6,4.3-4.9,6-4.5c1.6,0.4,3.7-12.7,1.4-16c-2.3-3.3-8.2-6.5-15.6-9.2
		c-7.4-2.7-12.5-4.2-14.4-4.2s-2.4,8.6-3.3,16s-2,17.2-5.8,17.9c-3.8,0.6-19.1,0.8-19.1,0c0-0.8,1-3.2,3.1-3.6s4.3,0.1,3.9-3.2
		c-0.4-3.3-3.5-22.5-3.5-24.8c0-2.3-0.8,2-10.9-7s-20.1-25-21.6-28.3c-1.4-3.3-3.1-9.2,0-14.8c-5.1-2.5-2.1-7-0.2-7.6
		c1.8-0.6,3.3,0.6,4.5,1.6c3.5-2.9,17.6-2.2,20.6-1.4c3,0.8,2.8,2.4,4.7,0.1c1.8-2.2,6,0.6,5.5,2.3c-0.4,1.6-1.4,3.3-2.3,4.3
		c-0.8,1,0.8,1.6,8.2,1c7.4-0.6,50.7-0.4,55.8,0c5.1,0.4,4.7,2.7,6.4,2.5c1.8-0.2,4.2-3.9,8.6,0.8c4.3,4.7-1.6,7.4-2.9,7.4
		c-1.2,0,1.2,5.5,1,11.1c-0.2,5.5,0.6,14.2-1.2,28.7s-3.4,25.7-5.5,27.9c-2.1,2.2-4.4,3.3-7.7,3.4S1824.1,143.9,1824.1,143.9z"/>
	<circle class="st28" cx="1769" cy="64.1" r="1.6"/>
	<circle class="st28" cx="1752.9" cy="64.1" r="1.6"/>
	<path class="st8" d="M1767.4,72.2c-0.5-6-0.5-8.1-3.8-9.3c-3.3-1.2-6.2-1-7.7,1.8c-1.5,2.8-2.3,8.3-1.4,10.6
		c0.9,2.3,3.2,4.7,6.3,4.7C1763.9,80,1767.8,77.1,1767.4,72.2z"/>
	<path class="st28" d="M1758.7,68.7c3-1.8,6,1.1,6,2.4s-1.2,3.8-3,3.8c-1.7,0-3.4,0-3.8-1.6S1756,70.4,1758.7,68.7z"/>
	<path class="st29" d="M1757.1,76.6c0.9,1.1,5.5,1.2,7.5,0.1L1757.1,76.6z"/>
	<path class="st8" d="M1774.3,57c1.2-1.8,2.3-0.9,3.1-0.4c0.8,0.5,0.5,2.6-1.1,3.3S1773.2,58.7,1774.3,57z"/>
	<path class="st8" d="M1747.5,56.8c-1.3-1.3-3.3-0.4-3.8,0.8c-0.5,1.2-0.1,3.1,1.9,3.4C1747.7,61.3,1748.8,58.1,1747.5,56.8z"/>
</g>
<circle class="st5" cx="1769.5" cy="63.6" r="0.4"/>
<circle class="st5" cx="1753.4" cy="63.6" r="0.4"/>
</svg>
