<?xml version="1.0" encoding="utf-8"?>
<!-- Generator: Adobe Illustrator 23.0.6, SVG Export Plug-In . SVG Version: 6.00 Build 0)  -->
<svg version="1.1" id="Layer_1" xmlns="http://www.w3.org/2000/svg" xmlns:xlink="http://www.w3.org/1999/xlink" x="0px" y="0px"
	 viewBox="0 0 2174 914.9" style="enable-background:new 0 0 2174 914.9;" xml:space="preserve">
<style type="text/css">
	.st0{fill-rule:evenodd;clip-rule:evenodd;fill:#E6F6FF;}
	.st1{clip-path:url(#SVGID_2_);}
	.st2{fill:#D1E8F2;}
	.st3{fill:#F5F6FB;}
	.st4{fill:#A2ABBC;}
	.st5{opacity:0.1;clip-path:url(#SVGID_5_);enable-background:new    ;}
	.st6{opacity:0.5;}
	.st7{fill:#FFFFFF;}
	.st8{fill:#6C778C;}
	.st9{opacity:0.1;clip-path:url(#SVGID_7_);enable-background:new    ;}
	.st10{opacity:0.8;clip-path:url(#SVGID_9_);fill:#FFFFFF;enable-background:new    ;}
	.st11{opacity:0.1;enable-background:new    ;}
	.st12{opacity:5.000000e-02;enable-background:new    ;}
	.st13{fill:#CACDD8;}
	.st14{opacity:0.1;clip-path:url(#SVGID_11_);enable-background:new    ;}
	.st15{fill-rule:evenodd;clip-rule:evenodd;fill:#F5F6FB;}
	.st16{opacity:0.6;clip-path:url(#SVGID_13_);fill:#FFFFFF;enable-background:new    ;}
	.st17{opacity:0.6;clip-path:url(#SVGID_15_);fill:#FFFFFF;enable-background:new    ;}
	.st18{display:none;}
	.st19{display:inline;}
	.st20{fill:#0A4B99;}
	.st21{clip-path:url(#SVGID_17_);}
	.st22{clip-path:url(#SVGID_19_);fill:#A59A13;}
	.st23{opacity:0.5;clip-path:url(#SVGID_21_);enable-background:new    ;}
	.st24{fill:#0A5CE0;}
	.st25{clip-path:url(#SVGID_23_);fill:#EAE421;}
	.st26{display:inline;fill:#C0CADD;}
	.st27{opacity:5.000000e-02;clip-path:url(#SVGID_25_);}
	.st28{opacity:5.000000e-02;}
	.st29{opacity:0.1;fill:#1A3034;enable-background:new    ;}
	.st30{fill:#BABAB3;}
	.st31{fill:#E8E8E2;}
	.st32{fill:#1A3034;}
	.st33{fill:#1A3034;stroke:#1A3034;stroke-linecap:round;stroke-linejoin:round;stroke-miterlimit:10;}
</style>
<circle class="st0" cx="2117.1" cy="670.8" r="476.7"/>
<g>
	<defs>
		<circle id="SVGID_1_" cx="2117.1" cy="670.8" r="476.7"/>
	</defs>
	<clipPath id="SVGID_2_">
		<use xlink:href="#SVGID_1_"  style="overflow:visible;"/>
	</clipPath>
	<g class="st1">
		<g>
			<g id="Tt89zW.tif_40_">
				<path class="st2" d="M1956.9,227.9c-0.1,0.1-0.3,0.3-0.6,0.4c-0.1,0-0.3,0-0.5,0c-0.2-0.1-0.4-0.1-0.6,0c-0.4,0.1-0.6,0-0.9-0.4
					c-0.2-0.3-0.3-0.5-0.5-0.7c-0.2-0.2-0.2-0.4-0.2-0.6c0.2-0.7,0.6-0.9,1.2-0.9c0.2,0,0.3,0,0.5,0.2c0.1,0.1,0.2,0,0.1-0.1
					c0,0,0,0,0,0c-0.2-0.4-0.2-0.7,0-1c0.1-0.3,0.3-0.5,0.6-0.5c0.3-0.1,0.5,0,0.8,0.3c0.2,0.2,0.3,0.3,0.3,0.6
					c0,0.2,0.1,0.5,0.1,0.7c0,0.3,0,0.5,0,0.8c0,0.1,0,0.3,0,0.4C1957.3,227.2,1957.2,227.4,1956.9,227.9z"/>
				<path class="st2" d="M1952.2,218.5c0.4-0.5,0.8-1,1.3-1.2c0.2-0.1,0.4-0.2,0.6-0.1c0.4,0.1,0.9,0.8,0.9,1.5c0,0.1,0,0.2,0,0.3
					c-0.1,0.3-0.3,0.5-0.5,0.5c-0.1,0-0.1,0.1-0.1,0.2c-0.1,0.3-0.1,0.7-0.1,1.2c0,0.5-0.1,0.6-0.4,0.5c-0.2,0-0.3,0-0.5,0
					c-0.2,0.1-0.3,0-0.5-0.2c-0.2-0.4-0.4-0.7-0.6-1.1c-0.1-0.4-0.2-0.8-0.2-1.1C1952.1,218.7,1952.2,218.6,1952.2,218.5z"/>
				<path class="st2" d="M1948,225.2c0.3-0.3,0.6-0.5,1-0.5c0.2,0,0.3,0.1,0.4,0.3c0.1,0.3,0.2,0.7,0.1,1.1c0,0.3,0,0.5,0.2,0.7
					c0.1,0.2,0.3,0.4,0.4,0.5c0.1,0.1,0.1,0.2,0.1,0.3c0.1,0.4,0,0.7-0.4,0.7c-0.2,0-0.4,0-0.6-0.1c-0.2-0.1-0.4-0.1-0.7-0.2
					c-0.3-0.1-0.5-0.2-0.6-0.5c0-0.2-0.1-0.4-0.1-0.5c0-0.1,0-0.3,0-0.4c0-0.1,0-0.3,0-0.4C1947.7,225.7,1947.8,225.4,1948,225.2z"
					/>
				<path class="st2" d="M1947,233.9c-0.1-0.1-0.2-0.3-0.2-0.4c-0.1-0.2-0.2-0.4-0.4-0.6c-0.2-0.1-0.3-0.3-0.4-0.4
					c-0.1-0.1-0.1-0.2,0-0.3c0.3-0.3,0.7-0.4,1-0.3c0.4,0.2,0.7,0.2,1,0c0.4-0.2,0.8-0.1,1.2,0c0.3,0.1,0.5,0.3,0.6,0.5
					c0.1,0.2,0,0.4-0.2,0.6c-0.1,0.1-0.3,0.2-0.4,0.2c-0.3,0.1-0.5,0.2-0.6,0.4c-0.1,0.1-0.1,0.1-0.2,0.2
					C1947.9,234.2,1947.5,234.2,1947,233.9z"/>
				<path class="st2" d="M1947.1,235.6c-0.1,0.1-0.3,0.2-0.4,0.2c-0.2,0-0.2-0.3-0.2-0.4c0-0.1,0-0.2,0-0.3
					c-0.1,0.1-0.2,0.2-0.2,0.2c-0.1,0.1-0.2,0.2-0.3,0.2c-0.1-0.1-0.2-0.2-0.2-0.3c0-0.2,0-0.4,0-0.6c0-0.1,0.1-0.2,0.1-0.3
					c0.2-0.2,0.4-0.1,0.5,0.1c0,0.1,0,0.2,0.1,0.3c0,0.1,0.1,0.2,0.2,0.1c0.1,0,0.2-0.1,0.3-0.1c0.2,0,0.3,0.2,0.3,0.4
					C1947.3,235.3,1947.2,235.4,1947.1,235.6z"/>
				<path class="st2" d="M1947,226.7c-0.2,0.1-0.3,0.3-0.4,0.3c-0.1,0-0.2,0.1-0.2,0c-0.1,0-0.1-0.2-0.1-0.2c0-0.1,0-0.2,0.1-0.2
					c0.1-0.2,0.2-0.4,0.3-0.6c0.1-0.3,0.3-0.3,0.5-0.2c0.2,0.1,0.3,0.3,0.2,0.5C1947.2,226.4,1947.1,226.6,1947,226.7z"/>
				<path class="st2" d="M1952.6,222.7c-0.1,0.1-0.2,0.2-0.3,0.2c-0.1,0.1-0.3,0-0.3-0.3c0-0.3,0-0.5,0.1-0.8
					c0.1-0.2,0.2-0.3,0.4-0.2c0.2,0.1,0.3,0.4,0.2,0.6C1952.7,222.5,1952.7,222.5,1952.6,222.7z"/>
				<path class="st2" d="M1953.2,223.3c0,0-0.1,0.1-0.1,0.1c-0.1,0.1-0.3,0-0.3-0.2c-0.1-0.4,0-0.8,0.2-1c0.1-0.1,0.3,0,0.4,0.1
					c0,0,0,0.1,0,0.2C1953.5,222.8,1953.4,223.1,1953.2,223.3z"/>
				<path class="st2" d="M1947,228.1c-0.2,0.1-0.4,0.2-0.6,0.3c-0.2,0.1-0.3,0-0.2-0.2c0.1-0.3,0.2-0.5,0.4-0.8
					c0.1-0.2,0.4-0.3,0.6-0.2c0.1,0.1,0.2,0.2,0.1,0.3C1947.2,227.7,1947.1,227.9,1947,228.1z"/>
				<path class="st2" d="M1947.2,228.3c0.2-0.3,0.4-0.3,0.5,0c0,0.1,0.1,0.2,0,0.3c-0.2,0.4-0.4,0.6-0.7,0.8c-0.1,0-0.2,0.1-0.2,0
					c0,0,0-0.1,0-0.2C1946.8,228.8,1947,228.5,1947.2,228.3z"/>
				<path class="st2" d="M1952,221.8c-0.1,0.1-0.2,0.2-0.4,0.2c-0.1,0.1-0.2,0-0.1-0.2c0-0.3,0.1-0.6,0.1-0.8c0-0.1,0.2-0.2,0.3-0.2
					c0.1,0,0.2,0.2,0.3,0.4C1952.2,221.5,1952.1,221.6,1952,221.8z"/>
				<path class="st2" d="M1951.5,220.6c-0.1,0.1-0.2,0.1-0.2,0.2c-0.1,0-0.2,0-0.1-0.2c0-0.3,0.1-0.6,0.2-0.9c0-0.2,0.2-0.2,0.3-0.3
					c0.1,0,0.1,0.1,0.1,0.3c0,0.3-0.1,0.5-0.1,0.7C1951.6,220.4,1951.6,220.5,1951.5,220.6C1951.5,220.5,1951.5,220.5,1951.5,220.6z
					"/>
				<path class="st2" d="M1947.8,229.1C1947.8,229.1,1947.8,229.1,1947.8,229.1c0.2-0.2,0.4-0.2,0.6-0.1c0.1,0.1,0.1,0.4-0.1,0.5
					c-0.2,0.2-0.5,0.4-0.7,0.5c-0.1,0.1-0.2,0-0.1-0.1C1947.5,229.6,1947.6,229.4,1947.8,229.1z"/>
				<path class="st2" d="M1953,228c0.1-0.1,0.2-0.2,0.4-0.2c0.2-0.1,0.3,0.1,0.3,0.2c0,0.2-0.1,0.3-0.2,0.4
					c-0.1,0.1-0.3,0.2-0.5,0.3c0,0-0.2,0-0.2,0c0-0.1-0.1-0.2-0.1-0.2C1952.9,228.4,1952.9,228.2,1953,228z"/>
				<path class="st2" d="M1948.3,235.6C1948.3,235.6,1948.3,235.6,1948.3,235.6c-0.2,0.1-0.2,0.1-0.3,0.2c0-0.1-0.1-0.1-0.1-0.2
					c0-0.2,0-0.3,0-0.5c0-0.3,0.2-0.6,0.5-0.6c0.2,0,0.3,0.1,0.3,0.3C1948.6,235.1,1948.5,235.3,1948.3,235.6z"/>
				<path class="st2" d="M1952.3,227.2c0.2-0.1,0.3-0.2,0.5-0.2c0.2,0,0.2,0.1,0.2,0.3c0,0.1,0,0.2-0.1,0.2
					c-0.2,0.2-0.3,0.3-0.5,0.4c-0.1,0.1-0.2-0.1-0.3-0.2C1952.2,227.5,1952.3,227.4,1952.3,227.2z"/>
				<path class="st2" d="M1955.1,229.3c0.1-0.1,0.2-0.2,0.4-0.3c0.1-0.1,0.2-0.1,0.3,0c0.1,0.1,0.1,0.2,0.1,0.3
					c-0.2,0.3-0.4,0.5-0.7,0.5c-0.1,0-0.2,0-0.2,0c0,0,0-0.1,0-0.2C1954.9,229.5,1955,229.4,1955.1,229.3z"/>
				<path class="st2" d="M1954.2,222.9c-0.1,0-0.1,0.1-0.2,0.1c-0.1,0-0.1,0-0.2-0.2c0-0.2,0-0.5,0-0.7c0-0.2,0.1-0.3,0.3-0.2
					c0.1,0,0.3,0.2,0.3,0.4C1954.4,222.6,1954.3,222.8,1954.2,222.9C1954.2,222.9,1954.2,222.9,1954.2,222.9z"/>
				<path class="st2" d="M1953.8,229.1c0.1-0.1,0.2-0.2,0.4-0.3c0.1,0,0.2,0,0.3,0c0,0,0.1,0.2,0.1,0.3c0,0.2-0.2,0.4-0.4,0.5
					c-0.1,0-0.2,0.1-0.3,0.1c-0.1,0-0.2-0.1-0.2-0.1c0,0,0-0.1,0-0.2C1953.7,229.2,1953.8,229.1,1953.8,229.1
					C1953.8,229.1,1953.8,229.1,1953.8,229.1z"/>
				<path class="st2" d="M1949.7,234.7c-0.1,0.1-0.3,0.2-0.4,0.2c0,0-0.1,0-0.2-0.1c-0.1-0.2,0.1-0.8,0.3-0.9c0.1-0.1,0.2-0.1,0.4,0
					c0.1,0.1,0.2,0.2,0.1,0.3C1949.9,234.5,1949.8,234.6,1949.7,234.7z"/>
				<path class="st2" d="M1949.1,228.9c0.1-0.1,0.3-0.1,0.4,0c0.1,0.1,0.1,0.2,0.1,0.4c-0.1,0.3-0.3,0.4-0.6,0.5
					c-0.1,0-0.2-0.1-0.2-0.2C1948.8,229.3,1949,229.1,1949.1,228.9z"/>
				<path class="st2" d="M1945.6,234.1c-0.1,0.1-0.2,0.1-0.3,0.2c0-0.1-0.1-0.2-0.1-0.3c0-0.2,0.1-0.3,0.1-0.5
					c0.1-0.1,0.2-0.2,0.3-0.1c0.1,0,0.2,0.1,0.2,0.3C1945.7,233.8,1945.7,233.9,1945.6,234.1z"/>
				<path class="st2" d="M1952.7,226.1c0.1,0,0.2-0.1,0.4-0.1c0.1,0,0.2,0.1,0.1,0.2c0,0.1-0.2,0.3-0.3,0.2c-0.1,0-0.1-0.1-0.2-0.2
					C1952.6,226.2,1952.7,226.1,1952.7,226.1z"/>
			</g>
			<g id="Tt89zW.tif_39_">
				<path class="st2" d="M1943.3,241.4c-0.2,0.2-0.5,0.4-0.9,0.6c-0.2,0.1-0.5,0.1-0.7,0.1c-0.3,0-0.6,0-0.8,0.1
					c-0.5,0.2-0.9,0.2-1.4-0.2c-0.3-0.2-0.5-0.4-0.8-0.6c-0.2-0.2-0.3-0.4-0.2-0.6c0.3-0.7,1-1.1,1.9-1.3c0.2,0,0.5-0.1,0.7,0
					c0.2,0.1,0.3,0,0.2-0.1c0,0,0,0,0,0c-0.2-0.3-0.2-0.7,0.1-1c0.2-0.3,0.6-0.6,1-0.8c0.4-0.2,0.8-0.1,1.2,0
					c0.3,0.1,0.4,0.3,0.4,0.5c0,0.2,0.1,0.5,0.1,0.7c0,0.3-0.1,0.6-0.1,0.9c0,0.1,0,0.3-0.1,0.4
					C1943.8,240.7,1943.7,240.9,1943.3,241.4z"/>
				<path class="st2" d="M1937.2,233.3c0.9-0.7,1.8-1.4,2.8-1.9c0.4-0.2,0.8-0.3,1.1-0.4c0.7-0.1,1.3,0.5,1.1,1.2
					c0,0.1-0.1,0.2-0.2,0.3c-0.3,0.3-0.6,0.6-1,0.8c-0.1,0-0.2,0.2-0.3,0.3c-0.3,0.4-0.4,0.8-0.5,1.3c0,0.5-0.3,0.7-0.9,0.7
					c-0.3,0-0.5,0.1-0.8,0.2c-0.3,0.2-0.6,0.2-0.8,0c-0.3-0.3-0.6-0.6-0.8-0.9c-0.2-0.3-0.1-0.7-0.1-1.1
					C1937,233.6,1937.1,233.4,1937.2,233.3z"/>
				<path class="st2" d="M1929.3,241.4c0.5-0.4,1-0.7,1.6-0.8c0.4-0.1,0.5,0,0.7,0.2c0.2,0.3,0.3,0.6,0.2,1c0,0.3,0.1,0.5,0.4,0.6
					c0.2,0.1,0.4,0.3,0.7,0.4c0.1,0.1,0.2,0.2,0.2,0.3c0.2,0.4,0,0.7-0.6,0.8c-0.3,0.1-0.6,0.1-0.9,0.1c-0.4,0-0.7,0-1.1,0
					c-0.5,0-0.8-0.1-1-0.4c-0.1-0.2-0.2-0.3-0.3-0.5c0-0.1,0-0.3,0-0.4c0-0.1,0-0.3-0.1-0.4C1928.9,242,1928.9,241.7,1929.3,241.4z"
					/>
				<path class="st2" d="M1929.3,250.1c-0.2-0.1-0.3-0.2-0.5-0.4c-0.2-0.2-0.4-0.4-0.8-0.5c-0.3-0.1-0.5-0.2-0.8-0.3
					c-0.2-0.1-0.2-0.1-0.1-0.3c0.3-0.4,0.9-0.6,1.5-0.5c0.6,0.1,1.1,0,1.6-0.2c0.6-0.3,1.2-0.3,1.9-0.3c0.4,0,0.7,0.2,0.9,0.4
					c0.2,0.2,0,0.4-0.2,0.6c-0.2,0.1-0.4,0.2-0.6,0.3c-0.4,0.1-0.6,0.3-0.8,0.5c-0.1,0.1-0.1,0.1-0.2,0.2
					C1930.7,250.2,1930.1,250.3,1929.3,250.1z"/>
				<path class="st2" d="M1929.9,251.8c-0.2,0.1-0.4,0.3-0.6,0.3c-0.3,0-0.3-0.2-0.4-0.4c0-0.1-0.1-0.2-0.1-0.3
					c-0.1,0.1-0.2,0.2-0.3,0.3c-0.1,0.1-0.2,0.2-0.3,0.3c-0.1-0.1-0.3-0.2-0.3-0.2c-0.1-0.2-0.2-0.4-0.2-0.6c0-0.1,0-0.2,0.1-0.3
					c0.2-0.2,0.6-0.2,0.8,0c0.1,0.1,0.1,0.2,0.2,0.3c0.1,0.1,0.2,0.1,0.4,0c0.1-0.1,0.3-0.1,0.5-0.2c0.2,0,0.5,0.2,0.5,0.3
					C1930,251.4,1929.9,251.6,1929.9,251.8z"/>
				<path class="st2" d="M1927.8,243.1c-0.2,0.2-0.4,0.3-0.6,0.5c-0.1,0.1-0.3,0.1-0.3,0.1c-0.1,0-0.2-0.1-0.2-0.2
					c0-0.1,0-0.2,0.1-0.3c0.1-0.2,0.2-0.4,0.3-0.6c0.1-0.3,0.4-0.4,0.8-0.4c0.3,0,0.5,0.2,0.3,0.4
					C1928.1,242.8,1927.9,243,1927.8,243.1z"/>
				<path class="st2" d="M1937.2,237.4c-0.2,0.1-0.3,0.2-0.5,0.3c-0.3,0.1-0.5,0.1-0.5-0.1c0-0.3,0.1-0.5,0.3-0.8
					c0.2-0.3,0.4-0.4,0.7-0.3c0.3,0.1,0.4,0.3,0.3,0.6C1937.4,237.1,1937.3,237.3,1937.2,237.4z"/>
				<path class="st2" d="M1938.1,237.8c-0.1,0.1-0.1,0.1-0.2,0.1c-0.2,0.1-0.5,0.1-0.5-0.1c0-0.4,0.1-0.8,0.5-1.1
					c0.1-0.1,0.5-0.2,0.6-0.1c0,0,0.1,0.1,0,0.2C1938.6,237.2,1938.4,237.5,1938.1,237.8z"/>
				<path class="st2" d="M1928,244.5c-0.3,0.2-0.6,0.3-0.9,0.5c-0.2,0.1-0.4,0.1-0.4-0.1c0.1-0.3,0.2-0.6,0.4-0.9
					c0.1-0.2,0.6-0.4,0.9-0.4c0.2,0,0.3,0.1,0.2,0.2C1928.3,244,1928.1,244.2,1928,244.5z"/>
				<path class="st2" d="M1928.3,244.6c0.4-0.3,0.6-0.4,0.9-0.2c0.1,0.1,0.1,0.2,0.1,0.3c-0.2,0.4-0.5,0.7-1,1
					c-0.1,0.1-0.3,0.1-0.4,0.1c-0.1,0-0.1-0.1-0.1-0.2C1927.8,245.2,1928,244.9,1928.3,244.6z"/>
				<path class="st2" d="M1936.3,236.7c-0.2,0.1-0.4,0.3-0.7,0.4c-0.2,0.1-0.3,0-0.2-0.1c0.1-0.3,0.2-0.6,0.3-0.9
					c0.1-0.2,0.3-0.3,0.5-0.3c0.2,0,0.4,0.1,0.4,0.3C1936.6,236.3,1936.5,236.5,1936.3,236.7z"/>
				<path class="st2" d="M1935.6,235.7c-0.1,0.1-0.3,0.2-0.4,0.3c-0.2,0.1-0.3,0-0.2-0.1c0.1-0.3,0.2-0.6,0.4-0.9
					c0.1-0.2,0.4-0.3,0.6-0.4c0.1,0,0.2,0,0.2,0.2c0,0.3-0.2,0.5-0.4,0.7C1935.7,235.5,1935.6,235.6,1935.6,235.7
					C1935.6,235.7,1935.6,235.7,1935.6,235.7z"/>
				<path class="st2" d="M1929.5,245.2C1929.5,245.2,1929.5,245.2,1929.5,245.2c0.3-0.2,0.7-0.4,0.9-0.3c0.2,0.1,0.2,0.3-0.1,0.6
					c-0.3,0.2-0.7,0.5-1,0.7c-0.2,0.1-0.2,0.1-0.2-0.1C1929.1,245.9,1929.2,245.5,1929.5,245.2z"/>
				<path class="st2" d="M1937.5,242.7c0.2-0.1,0.4-0.2,0.6-0.3c0.2-0.1,0.4,0,0.4,0.2c0,0.2-0.1,0.4-0.2,0.5
					c-0.2,0.2-0.5,0.3-0.8,0.5c-0.1,0-0.2,0.1-0.3,0c-0.1,0-0.1-0.1-0.1-0.2C1937.3,243.1,1937.4,242.9,1937.5,242.7z"/>
				<path class="st2" d="M1931.6,251.5c0,0,0,0.1-0.1,0.1c-0.1,0.1-0.2,0.1-0.3,0.1c0-0.1-0.1-0.1-0.1-0.2c-0.1-0.1-0.1-0.3-0.2-0.4
					c-0.1-0.3,0.1-0.6,0.6-0.7c0.3,0,0.5,0,0.5,0.2C1931.9,250.9,1931.8,251.2,1931.6,251.5z"/>
				<path class="st2" d="M1936.5,242.1c0.3-0.1,0.5-0.3,0.8-0.3c0.2-0.1,0.4,0,0.4,0.2c0,0.1,0,0.2-0.1,0.3
					c-0.2,0.2-0.5,0.4-0.8,0.6c-0.1,0.1-0.3,0-0.4-0.1C1936.2,242.4,1936.4,242.3,1936.5,242.1z"/>
				<path class="st2" d="M1940.6,243.4c0.1-0.1,0.3-0.3,0.5-0.4c0.1-0.1,0.3-0.1,0.4,0c0.2,0.1,0.2,0.2,0.1,0.3
					c-0.2,0.3-0.6,0.6-1,0.7c-0.1,0-0.2,0-0.3,0c-0.1,0-0.1-0.1,0-0.2C1940.3,243.7,1940.4,243.6,1940.6,243.4z"/>
				<path class="st2" d="M1939.8,237.1c-0.1,0.1-0.2,0.1-0.3,0.2c-0.1,0.1-0.2,0-0.2-0.1c0-0.2,0-0.5,0-0.7c0-0.2,0.2-0.3,0.5-0.3
					c0.2,0,0.4,0.1,0.4,0.3C1940.1,236.7,1940,236.9,1939.8,237.1C1939.8,237.1,1939.8,237.1,1939.8,237.1z"/>
				<path class="st2" d="M1938.7,243.6c0.2-0.1,0.4-0.3,0.6-0.4c0.1-0.1,0.3-0.1,0.4-0.1c0.1,0,0.1,0.2,0.1,0.2
					c-0.1,0.3-0.2,0.5-0.5,0.7c-0.1,0.1-0.3,0.1-0.4,0.1c-0.1,0-0.2,0-0.3-0.1c-0.1,0,0-0.1,0-0.2
					C1938.6,243.7,1938.7,243.6,1938.7,243.6C1938.7,243.6,1938.7,243.6,1938.7,243.6z"/>
				<path class="st2" d="M1933.5,250.3c-0.2,0.1-0.4,0.2-0.6,0.3c0,0-0.2,0-0.2,0c-0.2-0.2-0.1-0.8,0.2-0.9c0.2-0.1,0.3-0.1,0.5-0.1
					c0.2,0.1,0.3,0.2,0.2,0.3C1933.6,250,1933.5,250.2,1933.5,250.3z"/>
				<path class="st2" d="M1931.5,244.7c0.1-0.1,0.4-0.2,0.6-0.2c0.2,0,0.3,0.2,0.2,0.3c-0.2,0.3-0.5,0.5-0.9,0.6
					c-0.2,0-0.3,0-0.3-0.1C1931.2,245.2,1931.3,244.9,1931.5,244.7z"/>
				<path class="st2" d="M1927.2,250.6c-0.2,0.1-0.3,0.2-0.4,0.2c-0.1-0.1-0.2-0.2-0.2-0.3c0-0.2,0-0.3,0.1-0.5
					c0-0.1,0.2-0.2,0.4-0.2c0.2,0,0.3,0.1,0.3,0.2C1927.4,250.3,1927.3,250.5,1927.2,250.6z"/>
				<path class="st2" d="M1937,240.8c0.2-0.1,0.4-0.2,0.6-0.2c0.2,0,0.3,0,0.2,0.2c-0.1,0.2-0.3,0.3-0.6,0.3c-0.1,0-0.2-0.1-0.3-0.1
					C1937,241,1937,240.9,1937,240.8z"/>
			</g>
			<g id="Tt89zW.tif_38_">
				<path class="st2" d="M1926.5,258.8c-0.1,0.2-0.5,0.5-1,0.8c-0.2,0.1-0.6,0.2-0.9,0.2c-0.4,0-0.8,0.1-1.1,0.3
					c-0.6,0.3-1.2,0.3-2,0.1c-0.5-0.2-0.9-0.3-1.4-0.4c-0.4-0.1-0.7-0.3-0.7-0.5c0-0.8,0.8-1.3,2.1-1.6c0.3-0.1,0.6-0.2,1-0.1
					c0.3,0,0.4-0.1,0.2-0.2c0,0,0,0,0,0c-0.4-0.3-0.6-0.6-0.4-1c0.2-0.4,0.6-0.7,1.1-1c0.5-0.2,1.1-0.3,1.7-0.2
					c0.4,0,0.7,0.2,0.8,0.4c0.1,0.2,0.3,0.4,0.4,0.7c0.1,0.3,0.2,0.6,0.2,0.9c0,0.1,0.1,0.3,0.1,0.4
					C1927,257.9,1926.9,258.2,1926.5,258.8z"/>
				<path class="st2" d="M1913.6,252.3c1.1-0.8,2.2-1.7,3.6-2.4c0.5-0.3,1.1-0.5,1.7-0.7c1.1-0.3,2.3,0.1,2.3,0.8
					c0,0.1-0.1,0.2-0.2,0.3c-0.3,0.4-0.7,0.7-1.3,1c-0.2,0.1-0.3,0.2-0.4,0.3c-0.3,0.4-0.3,0.9-0.2,1.3c0.2,0.5-0.1,0.7-1,0.9
					c-0.4,0.1-0.8,0.2-1.1,0.4c-0.4,0.2-0.8,0.3-1.2,0.2c-0.6-0.2-1.3-0.4-1.8-0.7c-0.5-0.2-0.6-0.6-0.7-1
					C1913.4,252.6,1913.6,252.4,1913.6,252.3z"/>
				<path class="st2" d="M1906.4,261.4c0.4-0.4,1-0.8,1.9-1c0.5-0.1,0.8-0.1,1.1,0.1c0.5,0.3,0.9,0.5,1,0.9c0.1,0.3,0.5,0.4,1,0.5
					c0.4,0.1,0.8,0.2,1.2,0.3c0.2,0.1,0.4,0.1,0.5,0.2c0.5,0.3,0.4,0.6-0.4,0.9c-0.4,0.1-0.8,0.2-1.3,0.2c-0.5,0.1-1,0.1-1.6,0.2
					c-0.7,0.1-1.2,0-1.7-0.2c-0.3-0.1-0.6-0.3-0.8-0.4c-0.2-0.1-0.2-0.3-0.3-0.4c-0.1-0.1-0.2-0.3-0.4-0.4
					C1906.2,262,1906.1,261.7,1906.4,261.4z"/>
				<path class="st2" d="M1913,269.8c-0.3-0.1-0.6-0.2-0.9-0.3c-0.4-0.2-0.8-0.3-1.4-0.3c-0.4,0-0.9-0.1-1.3-0.1
					c-0.3,0-0.4-0.1-0.3-0.2c0.2-0.4,0.8-0.7,1.7-0.7c0.9,0,1.5-0.2,2-0.5c0.6-0.3,1.4-0.5,2.3-0.6c0.6-0.1,1.1,0,1.5,0.2
					c0.4,0.2,0.3,0.4,0.1,0.6c-0.1,0.1-0.3,0.3-0.6,0.4c-0.4,0.2-0.6,0.4-0.7,0.7c0,0.1-0.1,0.2-0.1,0.2
					C1914.9,269.7,1914.3,269.9,1913,269.8z"/>
				<path class="st2" d="M1915.1,271.3c-0.2,0.1-0.3,0.3-0.5,0.4c-0.4,0-0.6-0.2-0.8-0.3c-0.1-0.1-0.3-0.2-0.4-0.3
					c0,0.1-0.1,0.2-0.1,0.3c-0.1,0.1-0.1,0.2-0.2,0.3c-0.2-0.1-0.5-0.1-0.7-0.2c-0.3-0.2-0.6-0.4-0.8-0.6c-0.1-0.1-0.1-0.2-0.1-0.3
					c0.1-0.3,0.6-0.3,1-0.1c0.2,0.1,0.3,0.2,0.5,0.2c0.2,0.1,0.3,0.1,0.5,0c0.1-0.1,0.3-0.2,0.5-0.2c0.3-0.1,0.8,0.1,0.9,0.3
					C1915,271,1915,271.1,1915.1,271.3z"/>
				<path class="st2" d="M1905.5,263.3c-0.2,0.2-0.4,0.4-0.6,0.5c-0.1,0.1-0.3,0.2-0.4,0.2c-0.2,0-0.3-0.1-0.4-0.2
					c-0.1-0.1-0.1-0.2-0.1-0.3c0-0.2,0-0.4,0-0.7c0-0.3,0.3-0.4,0.9-0.5c0.5,0,0.9,0.1,0.8,0.4
					C1905.7,263,1905.6,263.1,1905.5,263.3z"/>
				<path class="st2" d="M1915.8,256.1c-0.2,0.1-0.3,0.3-0.5,0.4c-0.3,0.2-0.7,0.2-0.8,0c-0.2-0.3-0.2-0.5,0-0.8
					c0.2-0.3,0.4-0.4,0.9-0.4c0.5,0,0.8,0.2,0.7,0.5C1916,255.8,1915.9,255.9,1915.8,256.1z"/>
				<path class="st2" d="M1917.4,256.3c-0.1,0.1-0.1,0.1-0.2,0.2c-0.3,0.2-0.6,0.2-0.8,0c-0.3-0.4-0.2-0.8,0.2-1.2
					c0.2-0.1,0.7-0.3,1-0.2c0.1,0,0.2,0.1,0.2,0.2C1917.8,255.6,1917.7,256,1917.4,256.3z"/>
				<path class="st2" d="M1906.8,264.5c-0.3,0.2-0.6,0.4-0.9,0.6c-0.2,0.1-0.6,0.1-0.6,0c-0.1-0.3-0.1-0.6-0.1-0.9
					c0-0.2,0.6-0.5,1.1-0.5c0.3,0,0.5,0.1,0.5,0.2C1906.8,264.1,1906.8,264.3,1906.8,264.5z"/>
				<path class="st2" d="M1907.4,264.6c0.3-0.4,0.6-0.5,1.1-0.3c0.1,0,0.3,0.1,0.3,0.2c0,0.4-0.2,0.8-0.7,1.1
					c-0.1,0.1-0.3,0.1-0.5,0.1c-0.1,0-0.3-0.1-0.3-0.2C1907.2,265.3,1907.2,264.9,1907.4,264.6z"/>
				<path class="st2" d="M1914,255.6c-0.3,0.2-0.5,0.3-0.8,0.5c-0.2,0.1-0.4,0.1-0.4,0c-0.1-0.3-0.1-0.6-0.1-0.9
					c0-0.2,0.3-0.3,0.7-0.4c0.4-0.1,0.7,0,0.8,0.2C1914.3,255.2,1914.1,255.4,1914,255.6z"/>
				<path class="st2" d="M1912.3,254.8c-0.2,0.1-0.4,0.2-0.6,0.3c-0.2,0.1-0.4,0.1-0.4-0.1c0-0.3,0-0.6,0.1-0.9
					c0.1-0.2,0.4-0.4,0.7-0.5c0.2-0.1,0.4,0,0.5,0.1c0.1,0.2,0,0.5-0.2,0.8C1912.4,254.7,1912.3,254.7,1912.3,254.8
					C1912.3,254.8,1912.3,254.8,1912.3,254.8z"/>
				<path class="st2" d="M1909.5,265C1909.5,265,1909.5,265,1909.5,265c0.2-0.3,0.7-0.5,1-0.4c0.4,0.1,0.6,0.3,0.3,0.5
					c-0.3,0.3-0.6,0.6-0.9,0.9c-0.1,0.1-0.3,0.1-0.4,0C1909.4,265.7,1909.4,265.3,1909.5,265z"/>
				<path class="st2" d="M1919.2,261.1c0.2-0.1,0.4-0.3,0.6-0.4c0.3-0.1,0.6-0.1,0.7,0.1c0.1,0.2,0.1,0.4-0.1,0.5
					c-0.2,0.2-0.5,0.4-0.8,0.6c-0.1,0-0.3,0.1-0.3,0.1c-0.1,0-0.2-0.1-0.2-0.2C1919.1,261.6,1919.2,261.4,1919.2,261.1z"/>
				<path class="st2" d="M1917.1,270.8c0,0,0,0.1,0,0.1c-0.1,0.1-0.2,0.1-0.3,0.2c-0.1-0.1-0.2-0.1-0.3-0.2
					c-0.2-0.1-0.4-0.3-0.6-0.4c-0.4-0.3-0.3-0.6,0.2-0.7c0.4-0.1,0.7-0.1,0.8,0.1C1917.1,270.2,1917.1,270.5,1917.1,270.8z"/>
				<path class="st2" d="M1917.3,260.7c0.3-0.2,0.6-0.3,0.9-0.5c0.3-0.1,0.6-0.1,0.6,0.1c0,0.1,0.1,0.2,0,0.3
					c-0.2,0.2-0.5,0.5-0.8,0.7c-0.1,0.1-0.5,0.1-0.7-0.1C1917.2,261.1,1917.3,260.9,1917.3,260.7z"/>
				<path class="st2" d="M1923.8,261.3c0.1-0.1,0.3-0.3,0.5-0.5c0.1-0.1,0.3-0.2,0.6-0.1c0.3,0.1,0.3,0.2,0.3,0.3
					c-0.2,0.4-0.5,0.7-1,0.9c-0.1,0-0.3,0.1-0.4,0.1c-0.1,0-0.2-0.1-0.2-0.2C1923.6,261.6,1923.7,261.5,1923.8,261.3z"/>
				<path class="st2" d="M1919.6,255.3c-0.1,0.1-0.3,0.2-0.4,0.2c-0.2,0.1-0.3,0.1-0.4-0.1c-0.1-0.2-0.2-0.4-0.3-0.7
					c-0.1-0.2,0.2-0.4,0.6-0.4c0.4-0.1,0.7,0,0.7,0.2C1919.8,254.8,1919.7,255,1919.6,255.3C1919.6,255.3,1919.6,255.3,1919.6,255.3
					z"/>
				<path class="st2" d="M1921.3,261.7c0.2-0.2,0.3-0.4,0.6-0.5c0.1-0.1,0.3-0.1,0.5-0.1c0.1,0,0.2,0.1,0.3,0.2
					c0.1,0.3-0.1,0.5-0.4,0.7c-0.1,0.1-0.3,0.2-0.5,0.2c-0.1,0-0.3,0-0.5,0c-0.1,0-0.1-0.1-0.1-0.2
					C1921.2,261.9,1921.3,261.8,1921.3,261.7C1921.3,261.7,1921.3,261.7,1921.3,261.7z"/>
				<path class="st2" d="M1918.6,269.3c-0.1,0.1-0.3,0.3-0.5,0.4c0,0-0.3,0-0.3,0c-0.5-0.2-0.7-0.8-0.4-1c0.1-0.1,0.3-0.2,0.6-0.1
					c0.3,0,0.5,0.1,0.5,0.3C1918.6,269,1918.6,269.1,1918.6,269.3z"/>
				<path class="st2" d="M1911.9,264.1c0.1-0.1,0.5-0.3,0.8-0.3c0.3,0,0.5,0.1,0.5,0.3c0,0.3-0.3,0.6-0.9,0.8
					c-0.2,0.1-0.5,0-0.5-0.1C1911.8,264.6,1911.9,264.4,1911.9,264.1z"/>
				<path class="st2" d="M1910.7,270.6c-0.2,0.1-0.3,0.2-0.4,0.3c-0.2-0.1-0.4-0.1-0.5-0.2c-0.2-0.2-0.2-0.3-0.3-0.5
					c0-0.1,0.1-0.2,0.4-0.2c0.3,0,0.5,0,0.6,0.2C1910.6,270.3,1910.6,270.4,1910.7,270.6z"/>
				<path class="st2" d="M1917.4,259.4c0.2-0.1,0.5-0.2,0.7-0.3c0.2-0.1,0.4,0,0.4,0.1c0,0.2-0.3,0.4-0.6,0.4c-0.1,0-0.3,0-0.4-0.1
					C1917.4,259.6,1917.4,259.5,1917.4,259.4z"/>
			</g>
			<g id="Tt89zW.tif_37_">
				<path class="st2" d="M1915.4,278.2c0,0.2-0.1,0.6-0.5,0.9c-0.2,0.2-0.5,0.3-0.9,0.4c-0.5,0.1-0.8,0.2-1.1,0.4
					c-0.4,0.4-1.2,0.5-2.4,0.3c-0.7-0.1-1.5-0.2-2.2-0.3c-0.6-0.1-1.1-0.2-1.4-0.5c-0.7-0.8-0.2-1.4,1.1-1.9
					c0.3-0.1,0.7-0.3,1.2-0.3c0.4,0,0.4-0.1,0.1-0.2c0,0-0.1,0-0.1,0c-0.8-0.2-1.3-0.5-1.4-0.9c-0.1-0.4,0.1-0.8,0.6-1.1
					c0.5-0.3,1.2-0.5,2.1-0.5c0.6,0,1,0.1,1.4,0.3c0.3,0.2,0.7,0.4,1,0.6c0.4,0.3,0.7,0.6,1,0.8c0.2,0.1,0.3,0.3,0.5,0.4
					C1915.2,277.2,1915.4,277.5,1915.4,278.2z"/>
				<path class="st2" d="M1892.6,273.4c0.7-1,1.5-1.9,2.8-2.8c0.5-0.3,1.1-0.6,1.8-0.9c1.3-0.5,3.3-0.2,3.9,0.4
					c0.1,0.1,0.1,0.2,0.1,0.4c-0.1,0.4-0.3,0.8-0.9,1.1c-0.2,0.1-0.2,0.2-0.2,0.4c0,0.5,0.4,0.9,0.9,1.3c0.7,0.4,0.5,0.7-0.5,1
					c-0.5,0.1-0.9,0.3-1.2,0.5c-0.3,0.3-0.8,0.4-1.5,0.3c-1-0.1-2.1-0.2-3.1-0.4c-0.9-0.2-1.4-0.5-1.9-0.9
					C1892.6,273.8,1892.6,273.6,1892.6,273.4z"/>
				<path class="st2" d="M1892.7,283.4c0-0.5,0.4-0.9,1.2-1.3c0.5-0.2,0.9-0.2,1.5-0.1c0.9,0.2,1.7,0.4,2.3,0.8
					c0.5,0.3,1.1,0.4,1.8,0.4c0.6,0,1.2,0.1,1.9,0.1c0.3,0,0.6,0.1,0.8,0.2c1,0.3,1.2,0.6,0.5,0.9c-0.3,0.2-0.8,0.3-1.3,0.4
					c-0.6,0.1-1.2,0.2-1.7,0.4c-0.7,0.2-1.5,0.2-2.3,0c-0.5-0.1-1-0.2-1.5-0.3c-0.3-0.1-0.5-0.2-0.8-0.3c-0.3-0.1-0.6-0.2-1-0.3
					C1893.3,284.1,1892.7,283.8,1892.7,283.4z"/>
				<path class="st2" d="M1910.8,291.3c-0.5-0.1-1-0.1-1.4-0.2c-0.7-0.1-1.4-0.2-2.1-0.2c-0.5,0-1.1,0-1.7,0c-0.4,0-0.6-0.1-0.7-0.2
					c-0.3-0.5,0-0.8,1.1-1c1-0.1,1.6-0.4,1.8-0.7c0.3-0.4,1.1-0.7,2-0.9c0.7-0.1,1.4-0.1,2.1,0.1c0.7,0.2,0.9,0.4,0.9,0.6
					c0,0.2-0.1,0.3-0.2,0.5c-0.2,0.2-0.3,0.5-0.1,0.8c0.1,0.1,0.1,0.2,0.2,0.3C1912.9,290.9,1912.4,291.2,1910.8,291.3z"/>
				<path class="st2" d="M1915.1,292.6c0,0.2,0.1,0.4-0.2,0.5c-0.4,0.1-0.9-0.1-1.3-0.2c-0.3-0.1-0.6-0.2-0.8-0.2
					c0.1,0.1,0.2,0.2,0.3,0.4c0.1,0.1,0.2,0.3,0.2,0.4c-0.3,0-0.7-0.1-1-0.1c-0.6-0.1-1.2-0.3-1.7-0.5c-0.2-0.1-0.4-0.2-0.5-0.3
					c-0.2-0.3,0.3-0.4,1-0.3c0.3,0.1,0.6,0.1,0.9,0.2c0.4,0.1,0.5,0.1,0.6-0.1c0-0.1,0.1-0.2,0.3-0.3c0.3-0.1,1,0,1.4,0.2
					C1914.6,292.3,1914.8,292.5,1915.1,292.6z"/>
				<path class="st2" d="M1893.9,285.4c0,0.2,0,0.4-0.1,0.6c0,0.1-0.2,0.2-0.3,0.2c-0.2,0-0.5,0-0.7-0.1c-0.2-0.1-0.3-0.2-0.4-0.2
					c-0.3-0.2-0.6-0.4-0.8-0.7c-0.3-0.3-0.2-0.5,0.6-0.6c0.6-0.1,1.2,0,1.5,0.3C1893.7,285.1,1893.8,285.3,1893.9,285.4z"/>
				<path class="st2" d="M1899.2,276.9c-0.1,0.2-0.2,0.3-0.3,0.5c-0.2,0.2-0.7,0.3-1.1,0.1c-0.5-0.2-0.7-0.5-0.8-0.8
					c-0.1-0.3,0.1-0.5,0.7-0.5c0.6-0.1,1.3,0.1,1.4,0.4C1899.2,276.6,1899.2,276.7,1899.2,276.9z"/>
				<path class="st2" d="M1901.6,276.9c0,0.1,0,0.1-0.1,0.2c-0.2,0.2-0.7,0.3-1,0.1c-0.7-0.3-1-0.7-0.8-1.2c0.1-0.2,0.7-0.4,1.1-0.3
					c0.1,0,0.3,0.1,0.4,0.1C1901.4,276.2,1901.6,276.5,1901.6,276.9z"/>
				<path class="st2" d="M1896.9,286.5c-0.1,0.2-0.2,0.5-0.4,0.7c-0.1,0.2-0.5,0.2-0.8,0c-0.4-0.3-0.9-0.6-1.2-0.9
					c-0.2-0.2,0.2-0.6,0.8-0.6c0.3-0.1,0.7,0,0.9,0.1C1896.4,286,1896.6,286.3,1896.9,286.5z"/>
				<path class="st2" d="M1897.8,286.6c-0.1-0.4,0.2-0.6,1-0.5c0.2,0,0.5,0.1,0.6,0.2c0.5,0.4,0.7,0.8,0.5,1.2
					c0,0.1-0.2,0.2-0.4,0.2c-0.1,0-0.4-0.1-0.6-0.1C1898.3,287.3,1898,286.9,1897.8,286.6z"/>
				<path class="st2" d="M1896.4,276.7c-0.2,0.2-0.3,0.4-0.6,0.6c-0.2,0.1-0.4,0.1-0.6,0c-0.4-0.3-0.7-0.6-1-0.9
					c-0.1-0.2,0.1-0.4,0.5-0.4c0.4-0.1,0.9-0.1,1.2,0.1C1896.4,276.2,1896.4,276.4,1896.4,276.7z"/>
				<path class="st2" d="M1893.3,276.1c-0.1,0.1-0.2,0.3-0.4,0.4c-0.2,0.1-0.5,0.1-0.6,0c-0.3-0.3-0.6-0.6-0.8-0.9
					c-0.1-0.2,0.2-0.4,0.5-0.6c0.2-0.1,0.5-0.1,0.8,0.1c0.4,0.2,0.5,0.5,0.5,0.8C1893.3,275.9,1893.3,276,1893.3,276.1
					C1893.3,276.1,1893.3,276.1,1893.3,276.1z"/>
				<path class="st2" d="M1900.8,286.7C1900.8,286.7,1900.8,286.7,1900.8,286.7c-0.1-0.3,0.3-0.5,0.8-0.5c0.5,0,1,0.2,1,0.5
					c0,0.3,0,0.7-0.1,1c0,0.2-0.2,0.1-0.5,0C1901.5,287.4,1901.1,287,1900.8,286.7z"/>
				<path class="st2" d="M1908.6,281.5c0.1-0.2,0.2-0.4,0.4-0.5c0.2-0.2,0.7-0.2,0.9,0c0.2,0.2,0.5,0.4,0.4,0.5
					c0,0.2-0.2,0.5-0.4,0.7c0,0.1-0.2,0.1-0.3,0.1c-0.2,0-0.4-0.1-0.5-0.2C1908.9,282,1908.8,281.8,1908.6,281.5z"/>
				<path class="st2" d="M1916.8,291.8c0,0,0.1,0.1,0.1,0.1c0,0.1-0.1,0.2-0.2,0.2c-0.2,0-0.4-0.1-0.6-0.1c-0.4-0.1-0.8-0.3-1.2-0.4
					c-0.8-0.2-1.1-0.6-0.6-0.8c0.3-0.1,0.7-0.1,1.1,0C1916.1,291.2,1916.5,291.5,1916.8,291.8z"/>
				<path class="st2" d="M1905.8,281.3c0.2-0.2,0.4-0.4,0.6-0.6c0.3-0.2,0.6-0.1,0.9,0c0.1,0.1,0.3,0.2,0.3,0.3
					c0,0.3-0.1,0.6-0.3,0.8c-0.1,0.1-0.5,0.1-0.9,0C1906.1,281.7,1906,281.6,1905.8,281.3z"/>
				<path class="st2" d="M1914.4,281.1c0-0.2,0.1-0.4,0.2-0.6c0.1-0.1,0.2-0.2,0.6-0.2c0.4,0,0.6,0.1,0.6,0.3
					c0.1,0.4,0.1,0.8-0.4,1.1c-0.1,0.1-0.3,0.1-0.4,0.1c-0.1,0-0.3-0.1-0.4-0.2C1914.5,281.4,1914.4,281.3,1914.4,281.1z"/>
				<path class="st2" d="M1903.4,275.6c-0.1,0.1-0.2,0.2-0.3,0.3c-0.2,0.1-0.4,0.1-0.6,0c-0.3-0.2-0.7-0.4-1-0.6
					c-0.2-0.2-0.1-0.4,0.4-0.5c0.4-0.1,1-0.1,1.1,0.1C1903.3,275.1,1903.4,275.3,1903.4,275.6
					C1903.5,275.6,1903.4,275.6,1903.4,275.6z"/>
				<path class="st2" d="M1911.8,281.9c0-0.2,0.1-0.4,0.2-0.6c0-0.1,0.3-0.2,0.5-0.2c0.1,0,0.4,0.1,0.5,0.2c0.3,0.3,0.4,0.5,0.3,0.8
					c-0.1,0.1-0.2,0.2-0.4,0.3c-0.1,0-0.4,0.1-0.6,0c-0.1,0-0.3-0.1-0.4-0.2C1911.9,282.1,1911.9,282,1911.8,281.9
					C1911.9,281.9,1911.8,281.9,1911.8,281.9z"/>
				<path class="st2" d="M1916.8,290.1c0,0.2,0,0.3-0.1,0.5c0,0-0.3,0.1-0.4,0.1c-0.7-0.1-1.7-0.7-1.6-1c0-0.1,0.2-0.2,0.6-0.2
					c0.4,0,0.7,0.1,0.9,0.2C1916.5,289.8,1916.6,289.9,1916.8,290.1z"/>
				<path class="st2" d="M1902.8,285.5c0-0.1,0.3-0.3,0.6-0.4c0.3,0,0.7,0.1,0.9,0.2c0.4,0.3,0.3,0.6-0.2,0.9
					c-0.2,0.1-0.5,0.1-0.7,0C1903.3,286,1903,285.8,1902.8,285.5z"/>
				<path class="st2" d="M1909.1,292.4c0,0.1-0.1,0.2-0.1,0.4c-0.3-0.1-0.7-0.1-0.9-0.2c-0.4-0.1-0.7-0.3-1-0.5
					c-0.2-0.1-0.1-0.2,0.2-0.3c0.3-0.1,0.7,0,0.9,0.1C1908.5,292,1908.8,292.2,1909.1,292.4z"/>
				<path class="st2" d="M1904.6,280c0.2-0.1,0.4-0.3,0.6-0.4c0.2-0.1,0.5-0.1,0.6,0.1c0.2,0.2,0,0.4-0.4,0.5c-0.2,0-0.4,0-0.6,0
					C1904.8,280.2,1904.7,280.1,1904.6,280z"/>
			</g>
		</g>
	</g>
</g>
<path class="st3" d="M1458.1,49.6c8.6-16.8,25.8-28.1,44.1-31.7c16.8-3.2,35-0.4,49.5,8.9c13.5,8,23.5,21.8,26.6,37.3
	c11.7-3.1,23.9-5.7,36-3.4c16.5,2.5,32.7,11.3,41.5,25.9c4.3,6.7,6.1,14.6,6.6,22.4c11.4,0.4,23.2,2.8,32.5,9.7c5,4,9.3,10.2,8,17
	c-1.3,8-8.4,13.4-15.2,16.7c-17.1,7.7-37.7,7.2-54.4-1.2c-11.8,5.4-24.9,7.5-37.8,6.3c-9,15.5-25.4,26.1-43,29.2
	c-21.5,4.6-44.8-2.4-60.7-17.6c-15.6,8.1-34.8,9.3-51.2,2.7c-12.6-5-23.6-15.1-27.8-28.2c-3.7-11.6-1.1-24.8,6.4-34.3
	c8.3-11.1,21.6-17.6,35.1-19.7C1450.8,76.4,1451.5,61.8,1458.1,49.6z"/>
<path class="st3" d="M1337.8,456.5c6.4-12.5,19.1-20.8,32.6-23.5c12.5-2.3,25.9-0.3,36.7,6.6c10,6,17.4,16.2,19.7,27.6
	c8.7-2.3,17.7-4.2,26.7-2.5c12.2,1.9,24.2,8.4,30.8,19.2c3.2,4.9,4.5,10.8,4.9,16.6c8.5,0.3,17.2,2.1,24.1,7.2
	c3.7,3,6.9,7.6,5.9,12.6c-1,5.9-6.2,9.9-11.3,12.4c-12.7,5.7-27.9,5.3-40.3-0.9c-8.8,4-18.4,5.6-28,4.7
	c-6.7,11.5-18.8,19.3-31.8,21.6c-16,3.4-33.2-1.8-45-13c-11.6,6-25.8,6.9-37.9,2c-9.3-3.7-17.5-11.2-20.6-20.9
	c-2.8-8.6-0.8-18.4,4.8-25.4c6.2-8.2,16-13,26-14.6C1332.3,476.4,1332.8,465.5,1337.8,456.5z"/>
<path class="st4" d="M1288.4,866.2c83.7-101.6,80.2-222.7,128.3-286.9c48.1-64.1,32.1-147.9,73-201.3s78.4-65.9,105.1-94.4
	s30.3,36.3,57,57.4s33.9,181.4,64.1,218.8c30.3,37.4,53.5,167.5,53.5,208.5S1288.4,866.2,1288.4,866.2z"/>
<g>
	<g>
		<defs>
			<path id="SVGID_4_" d="M1288.4,866.2c83.7-101.6,80.2-222.7,128.3-286.9c48.1-64.1,32.1-147.9,73-201.3s78.4-65.9,105.1-94.4
				s30.3,36.3,57,57.4s33.9,181.4,64.1,218.8c30.3,37.4,53.5,167.5,53.5,208.5S1288.4,866.2,1288.4,866.2z"/>
		</defs>
		<clipPath id="SVGID_5_">
			<use xlink:href="#SVGID_4_"  style="overflow:visible;"/>
		</clipPath>
		<path class="st5" d="M1284.5,778.2c161.8,9.1,406.8-136.8,492.2-138.1s-32.4,252.5-32.4,252.5l-619.9,23.8L1284.5,778.2z"/>
	</g>
</g>
<g class="st6">
	<path class="st7" d="M1514.7,417.2l14.3,49.9l16-28.5l17.8,57l30.3-78.4l10.7,39.2l19.6-24.9l24.9,64.1L1659,435l26.7,25.7
		c-10.1-52.9-18.9-108.1-33.9-119.8c-26.7-21-30.3-85.9-57-57.4s-64.1,41-105.1,94.4c-13.4,17.5-20.7,38.3-26.2,60.5l26.2,42.8
		L1514.7,417.2z"/>
</g>
<g>
	<g>
		<path id="SVGID_3_" class="st8" d="M1849.7,911.6c43.5-99.6,51.6-370.3,101.9-464.3s117.5-60.2,137.2-39.5
			c19.8,20.7,85,227.5,85,227.5l19.8,293.3L2131,998L1849.7,911.6z"/>
	</g>
	<g>
		<defs>
			<path id="SVGID_6_" d="M1849.7,911.6c43.5-99.6,51.6-370.3,101.9-464.3s117.5-60.2,137.2-39.5c19.8,20.7,85,227.5,85,227.5
				l19.8,293.3L2131,998L1849.7,911.6z"/>
		</defs>
		<clipPath id="SVGID_7_">
			<use xlink:href="#SVGID_6_"  style="overflow:visible;"/>
		</clipPath>
		<path class="st9" d="M1875.5,613c161.1-18.4,316-1.5,358.9,99.7s-62.9,130.4-62.9,130.4l-331-95.1L1875.5,613z"/>
	</g>
</g>
<g class="st6">
	<path class="st7" d="M1954.8,499.2l14.3,39.2l25.9-42.8l13.3,32.1l26.7-32.1l28.5,42.8l16-51.7l23.2,51.7l10.7-39.2l21.7,19.6
		c-17.8-50.9-37-101.3-46.3-111c-19.8-20.7-87-54.5-137.2,39.5c-9.3,17.5-17.2,41-24.2,68.4l11.3,22.7L1954.8,499.2z"/>
</g>
<g>
	<g>
		<defs>
			<path id="SVGID_8_" d="M1954.8,499.2l14.3,39.2l25.9-42.8l13.3,32.1l26.7-32.1l28.5,42.8l16-51.7l23.2,51.7l10.7-39.2l21.7,19.6
				c-17.8-50.9-37-101.3-46.3-111c-19.8-20.7-87-54.5-137.2,39.5c-9.3,17.5-17.2,41-24.2,68.4l11.3,22.7L1954.8,499.2z"/>
		</defs>
		<clipPath id="SVGID_9_">
			<use xlink:href="#SVGID_8_"  style="overflow:visible;"/>
		</clipPath>
		<polygon class="st10" points="1945.3,431.3 1987.5,435.9 2021.6,431.3 2048.8,439.9 2071.8,435.6 2091,439.9 2101.5,433.2 
			2104.4,411.5 2057.7,368.4 1977.5,368.4 1940,386.8 		"/>
	</g>
</g>
<g>
	<path class="st11" d="M2024,731.2c-14.3-51.7,0-276.2-41-317.1c-1.4-1.4-2.8-3.1-4.1-4.9c-9.4,9.3-18.6,21.8-27.3,38
		c-50.3,94-58.4,364.7-101.9,464.3l68.1,20.9H2024C2024,932.5,2038.2,782.8,2024,731.2z"/>
</g>
<g>
	<polygon class="st12" points="1604.9,541.8 1638.2,469.5 1631.3,451.9 	"/>
	<polygon class="st12" points="1575.6,462.6 1568.4,563.7 1597.1,431.8 1593.1,417.2 	"/>
	<polygon class="st12" points="1514.7,417.2 1513.2,421.2 1514,566.2 1535.8,454.9 1529,467.1 	"/>
	<polygon class="st12" points="1474.3,456 1484,558 1491.2,477.8 1489.8,481.4 	"/>
</g>
<path class="st13" d="M1537.9,909c90.9-158.6,82-418.7,103.3-523.8s69.5-183.5,94.4-228.1c24.9-44.5,89.1-39.9,131.8-20.8
	c42.8,19,39.2,213.2,80.2,254.2s26.7,265.5,41,317.1s0,201.3,0,201.3h-450.7V909z"/>
<g>
	<g>
		<defs>
			<path id="SVGID_10_" d="M1537.9,909c90.9-158.6,82-418.7,103.3-523.8s69.5-183.5,94.4-228.1c24.9-44.5,89.1-39.9,131.8-20.8
				c42.8,19,39.2,213.2,80.2,254.2s26.7,265.5,41,317.1s0,201.3,0,201.3h-450.7V909z"/>
		</defs>
		<clipPath id="SVGID_11_">
			<use xlink:href="#SVGID_10_"  style="overflow:visible;"/>
		</clipPath>
		<path class="st14" d="M1535.6,740.3c164.1-44.5,348.7-107.5,429.7-69.1c81.1,38.4,70.3,185.7,70.3,185.7l-423.4,82.8L1479,887.2
			L1535.6,740.3z"/>
	</g>
</g>
<path class="st7" d="M2085.5,228.2c4.3-8.4,12.9-14.1,22-15.8c8.4-1.6,17.5-0.2,24.8,4.4c6.8,4,11.8,10.9,13.3,18.7
	c5.8-1.6,12-2.9,18-1.7c8.3,1.3,16.4,5.7,20.8,12.9c2.1,3.3,3.1,7.3,3.3,11.2c5.7,0.2,11.6,1.4,16.3,4.9c2.5,2,4.7,5.1,4,8.5
	c-0.7,4-4.2,6.7-7.6,8.4c-8.6,3.8-18.8,3.6-27.2-0.6c-5.9,2.7-12.5,3.8-18.9,3.2c-4.5,7.8-12.7,13-21.5,14.6
	c-10.8,2.3-22.4-1.2-30.4-8.8c-7.8,4.1-17.4,4.6-25.6,1.3c-6.3-2.5-11.8-7.5-13.9-14.1c-1.9-5.8-0.5-12.4,3.2-17.2
	c4.2-5.6,10.8-8.8,17.6-9.9C2081.8,241.6,2082.2,234.3,2085.5,228.2z"/>
<g class="st6">
	<path class="st7" d="M1724.9,276.5v49.9l41.5-65.9l22.7,80.5l37.4-50.5l32.1,37.7l24.9-51.7l19.6,64.5l17-21.2
		c-15.5-72.2-22.8-170.3-52.6-183.5c-42.8-19-106.9-23.7-131.8,20.8c-16,28.5-41.5,71-63.4,125.5l11.7,33.1L1724.9,276.5z"/>
</g>
<path class="st15" d="M-194,770.4l187,294l1317,79l1097-215c0,0,96.9-488.1-154-507.7c-116.1-9.1-45.6,431.3-133.4,402.7
	c-57.1-18.6-186.1-155.6-313.7-127.9c-237.4,51.5-421.2,192.4-629,120s-415.8-70.2-567.3-18.6S293,888.6,135.3,884.7
	C22.1,881.8,0,746.5,0,522.3C-301.6,466.1-194,770.4-194,770.4z"/>
<g>
	<g>
		<defs>
			<path id="SVGID_12_" d="M1514.7,417.2l14.3,49.9l16-28.5l17.8,57l30.3-78.4l10.7,39.2l19.6-24.9l24.9,64.1L1659,435l26.7,25.7
				c-10.1-52.9-18.9-108.1-33.9-119.8c-26.7-21-30.3-85.9-57-57.4s-64.1,41-105.1,94.4c-13.4,17.5-20.7,38.3-26.2,60.5l26.2,42.8
				L1514.7,417.2z"/>
		</defs>
		<clipPath id="SVGID_13_">
			<use xlink:href="#SVGID_12_"  style="overflow:visible;"/>
		</clipPath>
		<polygon class="st16" points="1529,319.2 1543.4,344.5 1568,336.1 1580.1,344.5 1609.6,338.2 1636.7,340.5 1650,333 1644.6,280.9 
			1603.7,260.2 		"/>
	</g>
</g>
<g>
	<g>
		<defs>
			<path id="SVGID_14_" d="M1724.9,276.5v49.9l41.5-65.9l22.7,80.5l37.4-50.5l32.1,37.7l24.9-51.7l19.6,64.5l17-21.2
				c-15.5-72.2-22.8-170.3-52.6-183.5c-42.8-19-106.9-23.7-131.8,20.8c-16,28.5-41.5,71-63.4,125.5l11.7,33.1L1724.9,276.5z"/>
		</defs>
		<clipPath id="SVGID_15_">
			<use xlink:href="#SVGID_14_"  style="overflow:visible;"/>
		</clipPath>
		<polygon class="st17" points="1721.3,152.8 1755.9,165.1 1786.5,162 1826.9,171.2 1867.8,162 1883.2,171.2 1893.1,165.8 
			1893.1,116.5 1804.2,99.1 1732.1,110.4 		"/>
	</g>
</g>
<g class="st18">
	<g class="st19">
		<path class="st20" d="M1873.6,82.8l-24.6,3.9c-0.8,0.1-1.4-1-1.4-2.5v-57c0-1.5,0.6-2.8,1.4-2.9l24.6-3.9c0.8-0.1,2.5,1,2.5,2.5
			v57C1876.1,81.3,1874.3,82.7,1873.6,82.8z"/>
		<g>
			<g>
				<defs>
					<path id="SVGID_16_" d="M1874.7,82.8l-25.8,3.9c-0.8,0.1-1.4-1-1.4-2.5v-57c0-1.5,0.6-2.8,1.4-2.9l25.8-3.9
						c0.8-0.1,1.4,1,1.4,2.5v57C1876.1,81.3,1875.5,82.7,1874.7,82.8z"/>
				</defs>
				<clipPath id="SVGID_17_">
					<use xlink:href="#SVGID_16_"  style="overflow:visible;"/>
				</clipPath>
				<g class="st21">
					<g>
						<defs>
							<path id="SVGID_18_" d="M1874.7,82.8l-25.8,3.9c-0.8,0.1-1.4-1-1.4-2.5v-57c0-1.5,0.6-2.8,1.4-2.9l25.8-3.9
								c0.8-0.1,1.4,1,1.4,2.5v57C1876.1,81.3,1875.5,82.7,1874.7,82.8z"/>
						</defs>
						<clipPath id="SVGID_19_">
							<use xlink:href="#SVGID_18_"  style="overflow:visible;"/>
						</clipPath>
						<polygon class="st22" points="1911,39 1900.9,40.5 1900.9,15.8 1886.4,12.7 1886.4,42.7 1836.2,50.3 1836.2,64.8 1886.4,57.2 
							1886.4,87.5 1900.9,90.6 1900.9,55 1911,53.5 						"/>
					</g>
				</g>
			</g>
			<g>
				<defs>
					<path id="SVGID_20_" d="M1874.7,82.8l-25.8,3.9c-0.8,0.1-1.4-1-1.4-2.5v-57c0-1.5,0.6-2.8,1.4-2.9l25.8-3.9
						c0.8-0.1,1.4,1,1.4,2.5v57C1876.1,81.3,1875.5,82.7,1874.7,82.8z"/>
				</defs>
				<clipPath id="SVGID_21_">
					<use xlink:href="#SVGID_20_"  style="overflow:visible;"/>
				</clipPath>
				<polygon class="st23" points="1840.5,81.1 1840.5,100.5 1841.9,93.7 1854.8,77.8 1851.6,67.7 1840,73.3 				"/>
			</g>
		</g>
		<path class="st24" d="M1852.6,79.2l-51.5,7.8c-1.5,0.2-2.7-0.8-2.7-2.3v-57c0-1.5,1.2-2.9,2.7-3.1l51.5-7.8
			c1.5-0.2,2.7,0.8,2.7,2.3v57C1855.4,77.6,1854.1,79,1852.6,79.2z"/>
		<g>
			<g>
				<defs>
					<path id="SVGID_22_" d="M1852.6,79.2l-51.5,7.8c-1.5,0.2-2.7-0.8-2.7-2.3v-57c0-1.5,1.2-2.9,2.7-3.1l51.5-7.8
						c1.5-0.2,2.7,0.8,2.7,2.3v57C1855.4,77.6,1854.1,79,1852.6,79.2z"/>
				</defs>
				<clipPath id="SVGID_23_">
					<use xlink:href="#SVGID_22_"  style="overflow:visible;"/>
				</clipPath>
				<polygon class="st25" points="1856.1,39.9 1846,41.5 1846,16.8 1831.5,13.7 1831.5,43.7 1781.2,51.3 1781.2,65.8 1831.5,58.2 
					1831.5,88.5 1846,91.6 1846,56 1856.1,54.5 				"/>
			</g>
		</g>
	</g>
	<path class="st26" d="M1796.8,141.6h2.4c0.7,0,1.2-0.5,1.2-1.2V24c0-0.7-0.5-1.2-1.2-1.2h-2.4c-0.7,0-1.2,0.5-1.2,1.2v116.4
		C1795.5,141,1796.1,141.6,1796.8,141.6z"/>
	<g class="st19">
		<g>
			<defs>
				<path id="SVGID_24_" d="M1724.9,276.5v49.9l41.5-65.9l22.7,80.5l37.4-50.5l32.1,37.7l24.9-51.7l19.6,64.5l17-21.2
					c-15.5-72.2-22.8-170.3-52.6-183.5c-42.8-19-106.9-23.7-131.8,20.8c-16,28.5-41.5,71-63.4,125.5l11.7,33.1L1724.9,276.5z"/>
			</defs>
			<clipPath id="SVGID_25_">
				<use xlink:href="#SVGID_24_"  style="overflow:visible;"/>
			</clipPath>
			<g class="st27">
				<path d="M1796.5,139.8l1.5,1.3c0.6,0.5,1.5,0.4,2-0.2l75.8-24.6c-2-0.2-4.1-0.3-6.1-0.4l-73.4,21.8
					C1795.8,138.4,1795.9,139.3,1796.5,139.8z"/>
			</g>
		</g>
	</g>
</g>
<g class="st28">
	<polygon points="1800.3,325.8 1795.5,409.2 1817.6,302.4 	"/>
	<polygon points="1724.9,276.5 1696.5,303.6 1704.3,432.1 1724.9,285.5 	"/>
	<polygon points="1766.4,260.4 1744.3,295.5 1759.8,439.3 1776.7,297 	"/>
	<polygon points="1842.6,309.4 1849.7,394.3 1857.8,327.2 	"/>
	<polygon points="1886,284.8 1879,373.8 1893,307.6 	"/>
</g>
<g class="st28">
	<polygon points="2008.2,527.7 1995,495.6 1993.8,497.6 2007.1,571.3 2010.4,525.1 	"/>
	<polygon points="1973.8,530.6 1979.8,584.1 1986.3,510 	"/>
	<polygon points="2035,495.6 2025.1,507.4 2030.3,589.8 2035.2,496 	"/>
	<polygon points="2102.7,538.4 2079.5,486.7 2078.9,488.7 2106.7,580 2106.7,523.4 	"/>
	<polygon points="2063.5,538.4 2062.1,536.3 2070.6,584.9 2070.6,515.5 	"/>
</g>
<g>
	<ellipse class="st29" cx="1832.3" cy="142.7" rx="18.5" ry="2.7"/>
	<ellipse class="st29" cx="1781.3" cy="142.7" rx="18.5" ry="2.7"/>
	<path class="st30" d="M1825.5,110.5c-0.6,9.6,1.1,24.3-1.3,26s-4.1,0.8-5.3,2.5c-1.2,1.6-1.7,3.3-0.9,3.3s17,0,17,0v-24.9
		L1825.5,110.5z"/>
	<path class="st30" d="M1767.5,104c0,0,6.2,31.2,5.3,32.7c-0.9,1.6-3.5,1-4.3,3.7s-0.5,1.8,1,1.8s5.1,0,5.1,0l10.1-0.7v-7.7
		l-2.4-25.4L1767.5,104z"/>
	<path class="st31" d="M1824.1,143.9c2.1-6,4.3-4.9,6-4.5c1.6,0.4,3.7-12.7,1.4-16c-2.3-3.3-8.2-6.5-15.6-9.2s-12.5-4.2-14.4-4.2
		s-2.4,8.6-3.3,16c-0.9,7.4-2,17.2-5.8,17.9c-3.8,0.6-19.1,0.8-19.1,0s1-3.2,3.1-3.6s4.3,0.1,3.9-3.2s-3.5-22.5-3.5-24.8
		s-0.8,2-10.9-7s-20.1-25-21.6-28.3c-1.4-3.3-3.1-9.2,0-14.8c-5.1-2.5-2.1-7-0.2-7.6c1.8-0.6,3.3,0.6,4.5,1.6
		c3.5-2.9,17.6-2.2,20.6-1.4s2.8,2.4,4.7,0.1c1.8-2.2,6,0.6,5.5,2.3c-0.4,1.6-1.4,3.3-2.3,4.3c-0.8,1,0.8,1.6,8.2,1
		c7.4-0.6,50.7-0.4,55.8,0c5.1,0.4,4.7,2.7,6.4,2.5c1.8-0.2,4.2-3.9,8.6,0.8c4.3,4.7-1.6,7.4-2.9,7.4c-1.2,0,1.2,5.5,1,11.1
		c-0.2,5.5,0.6,14.2-1.2,28.7s-3.4,25.7-5.5,27.9s-4.4,3.3-7.7,3.4S1824.1,143.9,1824.1,143.9z"/>
	<circle class="st32" cx="1769" cy="64.1" r="1.6"/>
	<circle class="st32" cx="1752.9" cy="64.1" r="1.6"/>
	<path class="st11" d="M1767.4,72.2c-0.5-6-0.5-8.1-3.8-9.3s-6.2-1-7.7,1.8c-1.5,2.8-2.3,8.3-1.4,10.6c0.9,2.3,3.2,4.7,6.3,4.7
		C1763.9,80,1767.8,77.1,1767.4,72.2z"/>
	<path class="st32" d="M1758.7,68.7c3-1.8,6,1.1,6,2.4s-1.2,3.8-3,3.8c-1.7,0-3.4,0-3.8-1.6S1756,70.4,1758.7,68.7z"/>
	<path class="st33" d="M1757.1,76.6c0.9,1.1,5.5,1.2,7.5,0.1L1757.1,76.6z"/>
	<path class="st11" d="M1774.3,57c1.2-1.8,2.3-0.9,3.1-0.4c0.8,0.5,0.5,2.6-1.1,3.3S1773.2,58.7,1774.3,57z"/>
	<path class="st11" d="M1747.5,56.8c-1.3-1.3-3.3-0.4-3.8,0.8s-0.1,3.1,1.9,3.4C1747.7,61.3,1748.8,58.1,1747.5,56.8z"/>
</g>
<circle class="st7" cx="1769.5" cy="63.6" r="0.4"/>
<circle class="st7" cx="1753.4" cy="63.6" r="0.4"/>
</svg>
