<svg id="Layer_1" xmlns="http://www.w3.org/2000/svg" xmlns:xlink="http://www.w3.org/1999/xlink" viewBox="0 0 2174 914.9"><style>.st0{fill:#f5f6fb}.st5{fill:#d1e8f2}.st8{opacity:.5}.st9{fill:#fff}.st13,.st14{opacity:.1;enable-background:new}.st14{opacity:5.000000e-02}.st20{display:inline}.st29{opacity:5.000000e-02}.st30{opacity:.1;fill:#1a3034;enable-background:new}.st31{fill:#babab3}.st33{fill:#1a3034}</style><circle cx="2117.1" cy="670.8" r="476.7" fill-rule="evenodd" clip-rule="evenodd" fill="#e6f6ff"/><defs><circle id="SVGID_27_" cx="2117.1" cy="670.8" r="476.7"/></defs><clipPath id="SVGID_14_"><use xlink:href="#SVGID_27_" overflow="visible"/></clipPath><g clip-path="url(#SVGID_14_)"><g id="Tt89zW.tif_48_"><path class="st5" d="M1956.9 227.9c-.1.1-.3.3-.6.4h-.5c-.2-.1-.4-.1-.6 0-.4.1-.6 0-.9-.4-.2-.3-.3-.5-.5-.7-.2-.2-.2-.4-.2-.6.2-.7.6-.9 1.2-.9.2 0 .3 0 .5.2.1.1.2 0 .1-.1-.2-.4-.2-.7 0-1 .1-.3.3-.5.6-.5.3-.1.5 0 .8.3.2.2.3.3.3.6 0 .2.1.5.1.7V227.1c.1.1 0 .3-.3.8zM1952.2 218.5c.4-.5.8-1 1.3-1.2.2-.1.4-.2.6-.1.4.1.9.8.9 1.5v.3c-.1.3-.3.5-.5.5-.1 0-.1.1-.1.2-.1.3-.1.7-.1 1.2s-.1.6-.4.5h-.5c-.2.1-.3 0-.5-.2-.2-.4-.4-.7-.6-1.1-.1-.4-.2-.8-.2-1.1 0-.3.1-.4.1-.5zM1948 225.2c.3-.3.6-.5 1-.5.2 0 .3.1.4.3.1.3.2.7.1 1.1 0 .3 0 .5.2.7.1.2.3.4.4.5.1.1.1.2.1.3.1.4 0 .7-.4.7-.2 0-.4 0-.6-.1-.2-.1-.4-.1-.7-.2-.3-.1-.5-.2-.6-.5 0-.2-.1-.4-.1-.5v-.4-.4c-.1-.5 0-.8.2-1zM1947 233.9c-.1-.1-.2-.3-.2-.4-.1-.2-.2-.4-.4-.6-.2-.1-.3-.3-.4-.4-.1-.1-.1-.2 0-.3.3-.3.7-.4 1-.3.4.2.7.2 1 0 .4-.2.8-.1 1.2 0 .3.1.5.3.6.5.1.2 0 .4-.2.6-.1.1-.3.2-.4.2-.3.1-.5.2-.6.4l-.2.2c-.5.4-.9.4-1.4.1zM1947.1 235.6c-.1.1-.3.2-.4.2-.2 0-.2-.3-.2-.4v-.3l-.2.2c-.1.1-.2.2-.3.2-.1-.1-.2-.2-.2-.3v-.6c0-.1.1-.2.1-.3.2-.2.4-.1.5.1 0 .1 0 .2.1.3 0 .1.1.2.2.1.1 0 .2-.1.3-.1.2 0 .3.2.3.4s-.1.3-.2.5zM1947 226.7c-.2.1-.3.3-.4.3-.1 0-.2.1-.2 0-.1 0-.1-.2-.1-.2 0-.1 0-.2.1-.2l.3-.6c.1-.3.3-.3.5-.2.2.1.3.3.2.5-.2.1-.3.3-.4.4zM1952.6 222.7c-.1.1-.2.2-.3.2-.1.1-.3 0-.3-.3s0-.5.1-.8c.1-.2.2-.3.4-.2.2.1.3.4.2.6 0 .3 0 .3-.1.5zM1953.2 223.3l-.1.1c-.1.1-.3 0-.3-.2-.1-.4 0-.8.2-1 .1-.1.3 0 .4.1v.2c.1.3 0 .6-.2.8zM1947 228.1l-.6.3c-.2.1-.3 0-.2-.2.1-.3.2-.5.4-.8.1-.2.4-.3.6-.2.1.1.2.2.1.3l-.3.6zM1947.2 228.3c.2-.3.4-.3.5 0 0 .1.1.2 0 .3-.2.4-.4.6-.7.8-.1 0-.2.1-.2 0v-.2c0-.4.2-.7.4-.9zM1952 221.8c-.1.1-.2.2-.4.2-.1.1-.2 0-.1-.2 0-.3.1-.6.1-.8 0-.1.2-.2.3-.2.1 0 .2.2.3.4 0 .3-.1.4-.2.6zM1951.5 220.6c-.1.1-.2.1-.2.2-.1 0-.2 0-.1-.2 0-.3.1-.6.2-.9 0-.2.2-.2.3-.3.1 0 .1.1.1.3 0 .3-.1.5-.1.7-.1 0-.1.1-.2.2 0-.1 0-.1 0 0zM1947.8 229.1c.2-.2.4-.2.6-.1.1.1.1.4-.1.5-.2.2-.5.4-.7.5-.1.1-.2 0-.1-.1 0-.3.1-.5.3-.8zM1953 228c.1-.1.2-.2.4-.2.2-.1.3.1.3.2 0 .2-.1.3-.2.4-.1.1-.3.2-.5.3h-.2c0-.1-.1-.2-.1-.2.2-.1.2-.3.3-.5zM1948.3 235.6c-.2.1-.2.1-.3.2 0-.1-.1-.1-.1-.2v-.5c0-.3.2-.6.5-.6.2 0 .3.1.3.3-.1.3-.2.5-.4.8zM1952.3 227.2c.2-.1.3-.2.5-.2s.2.1.2.3c0 .1 0 .2-.1.2-.2.2-.3.3-.5.4-.1.1-.2-.1-.3-.2.1-.2.2-.3.2-.5zM1955.1 229.3c.1-.1.2-.2.4-.3.1-.1.2-.1.3 0 .1.1.1.2.1.3-.2.3-.4.5-.7.5h-.2v-.2c-.1-.1 0-.2.1-.3zM1954.2 222.9c-.1 0-.1.1-.2.1s-.1 0-.2-.2v-.7c0-.2.1-.3.3-.2.1 0 .3.2.3.4 0 .3-.1.5-.2.6zM1953.8 229.1c.1-.1.2-.2.4-.3h.3s.1.2.1.3c0 .2-.2.4-.4.5-.1 0-.2.1-.3.1-.1 0-.2-.1-.2-.1v-.2c0-.2.1-.3.1-.3zM1949.7 234.7c-.1.1-.3.2-.4.2 0 0-.1 0-.2-.1-.1-.2.1-.8.3-.9.1-.1.2-.1.4 0 .1.1.2.2.1.3 0 .3-.1.4-.2.5zM1949.1 228.9c.1-.1.3-.1.4 0 .1.1.1.2.1.4-.1.3-.3.4-.6.5-.1 0-.2-.1-.2-.2 0-.3.2-.5.3-.7zM1945.6 234.1c-.1.1-.2.1-.3.2 0-.1-.1-.2-.1-.3 0-.2.1-.3.1-.5.1-.1.2-.2.3-.1.1 0 .2.1.2.3-.1.1-.1.2-.2.4zM1952.7 226.1c.1 0 .2-.1.4-.1.1 0 .2.1.1.2 0 .1-.2.3-.3.2-.1 0-.1-.1-.2-.2-.1 0 0-.1 0-.1z"/></g><g id="Tt89zW.tif_47_"><path class="st5" d="M1943.3 241.4c-.2.2-.5.4-.9.6-.2.1-.5.1-.7.1-.3 0-.6 0-.8.1-.5.2-.9.2-1.4-.2-.3-.2-.5-.4-.8-.6-.2-.2-.3-.4-.2-.6.3-.7 1-1.1 1.9-1.3.2 0 .5-.1.7 0 .2.1.3 0 .2-.1-.2-.3-.2-.7.1-1 .2-.3.6-.6 1-.8.4-.2.8-.1 1.2 0 .3.1.4.3.4.5s.1.5.1.7c0 .3-.1.6-.1.9 0 .1 0 .3-.1.4-.1.6-.2.8-.6 1.3zM1937.2 233.3c.9-.7 1.8-1.4 2.8-1.9.4-.2.8-.3 1.1-.4.7-.1 1.3.5 1.1 1.2 0 .1-.1.2-.2.3-.3.3-.6.6-1 .8-.1 0-.2.2-.3.3-.3.4-.4.8-.5 1.3 0 .5-.3.7-.9.7-.3 0-.5.1-.8.2-.3.2-.6.2-.8 0-.3-.3-.6-.6-.8-.9-.2-.3-.1-.7-.1-1.1.2-.2.3-.4.4-.5zM1929.3 241.4c.5-.4 1-.7 1.6-.8.4-.1.5 0 .7.2.2.3.3.6.2 1 0 .3.1.5.4.6.2.1.4.3.7.4.1.1.2.2.2.3.2.4 0 .7-.6.8-.3.1-.6.1-.9.1h-1.1c-.5 0-.8-.1-1-.4-.1-.2-.2-.3-.3-.5v-.4c0-.1 0-.3-.1-.4-.2-.3-.2-.6.2-.9zM1929.3 250.1c-.2-.1-.3-.2-.5-.4s-.4-.4-.8-.5c-.3-.1-.5-.2-.8-.3-.2-.1-.2-.1-.1-.3.3-.4.9-.6 1.5-.5.6.1 1.1 0 1.6-.2.6-.3 1.2-.3 1.9-.3.4 0 .7.2.9.4.2.2 0 .4-.2.6l-.6.3c-.4.1-.6.3-.8.5l-.2.2c-.5.6-1.1.7-1.9.5zM1929.9 251.8c-.2.1-.4.3-.6.3-.3 0-.3-.2-.4-.4 0-.1-.1-.2-.1-.3l-.3.3-.3.3c-.1-.1-.3-.2-.3-.2-.1-.2-.2-.4-.2-.6 0-.1 0-.2.1-.3.2-.2.6-.2.8 0 .1.1.1.2.2.3.1.1.2.1.4 0 .1-.1.3-.1.5-.2.2 0 .5.2.5.3-.2.1-.3.3-.3.5zM1927.8 243.1c-.2.2-.4.3-.6.5-.1.1-.3.1-.3.1-.1 0-.2-.1-.2-.2s0-.2.1-.3l.3-.6c.1-.3.4-.4.8-.4.3 0 .5.2.3.4-.1.2-.3.4-.4.5zM1937.2 237.4c-.2.1-.3.2-.5.3-.3.1-.5.1-.5-.1 0-.3.1-.5.3-.8.2-.3.4-.4.7-.3.3.1.4.3.3.6-.1 0-.2.2-.3.3zM1938.1 237.8c-.1.1-.1.1-.2.1-.2.1-.5.1-.5-.1 0-.4.1-.8.5-1.1.1-.1.5-.2.6-.1 0 0 .1.1 0 .2.1.4-.1.7-.4 1zM1928 244.5c-.3.2-.6.3-.9.5-.2.1-.4.1-.4-.1.1-.3.2-.6.4-.9.1-.2.6-.4.9-.4.2 0 .3.1.2.2.1.2-.1.4-.2.7zM1928.3 244.6c.4-.3.6-.4.9-.2.1.1.1.2.1.3-.2.4-.5.7-1 1-.1.1-.3.1-.4.1-.1 0-.1-.1-.1-.2 0-.4.2-.7.5-1zM1936.3 236.7c-.2.1-.4.3-.7.4-.2.1-.3 0-.2-.1l.3-.9c.1-.2.3-.3.5-.3s.4.1.4.3c0 .2-.1.4-.3.6zM1935.6 235.7c-.1.1-.3.2-.4.3-.2.1-.3 0-.2-.1.1-.3.2-.6.4-.9.1-.2.4-.3.6-.4.1 0 .2 0 .2.2 0 .3-.2.5-.4.7-.1 0-.2.1-.2.2zM1929.5 245.2c.3-.2.7-.4.9-.3.2.1.2.3-.1.6-.3.2-.7.5-1 .7-.2.1-.2.1-.2-.1s.1-.6.4-.9zM1937.5 242.7l.6-.3c.2-.1.4 0 .4.2s-.1.4-.2.5c-.2.2-.5.3-.8.5-.1 0-.2.1-.3 0-.1 0-.1-.1-.1-.2.2-.3.3-.5.4-.7zM1931.6 251.5s0 .1-.1.1c-.1.1-.2.1-.3.1 0-.1-.1-.1-.1-.2-.1-.1-.1-.3-.2-.4-.1-.3.1-.6.6-.7.3 0 .5 0 .5.2-.1.3-.2.6-.4.9zM1936.5 242.1c.3-.1.5-.3.8-.3.2-.1.4 0 .4.2 0 .1 0 .2-.1.3-.2.2-.5.4-.8.6-.1.1-.3 0-.4-.1-.2-.4 0-.5.1-.7zM1940.6 243.4c.1-.1.3-.3.5-.4.1-.1.3-.1.4 0 .2.1.2.2.1.3-.2.3-.6.6-1 .7h-.3c-.1 0-.1-.1 0-.2 0-.1.1-.2.3-.4zM1939.8 237.1c-.1.1-.2.1-.3.2-.1.1-.2 0-.2-.1v-.7c0-.2.2-.3.5-.3.2 0 .4.1.4.3-.1.2-.2.4-.4.6zM1938.7 243.6c.2-.1.4-.3.6-.4.1-.1.3-.1.4-.1.1 0 .1.2.1.2-.1.3-.2.5-.5.7-.1.1-.3.1-.4.1-.1 0-.2 0-.3-.1-.1 0 0-.1 0-.2s.1-.2.1-.2zM1933.5 250.3l-.6.3h-.2c-.2-.2-.1-.8.2-.9.2-.1.3-.1.5-.1.2.1.3.2.2.3 0 .1-.1.3-.1.4zM1931.5 244.7c.1-.1.4-.2.6-.2.2 0 .3.2.2.3-.2.3-.5.5-.9.6-.2 0-.3 0-.3-.1.1-.1.2-.4.4-.6zM1927.2 250.6c-.2.1-.3.2-.4.2-.1-.1-.2-.2-.2-.3 0-.2 0-.3.1-.5 0-.1.2-.2.4-.2s.3.1.3.2c0 .3-.1.5-.2.6zM1937 240.8c.2-.1.4-.2.6-.2.2 0 .3 0 .2.2-.1.2-.3.3-.6.3-.1 0-.2-.1-.3-.1.1 0 .1-.1.1-.2z"/></g><g id="Tt89zW.tif_46_"><path class="st5" d="M1926.5 258.8c-.1.2-.5.5-1 .8-.2.1-.6.2-.9.2-.4 0-.8.1-1.1.3-.6.3-1.2.3-2 .1-.5-.2-.9-.3-1.4-.4-.4-.1-.7-.3-.7-.5 0-.8.8-1.3 2.1-1.6.3-.1.6-.2 1-.1.3 0 .4-.1.2-.2-.4-.3-.6-.6-.4-1 .2-.4.6-.7 1.1-1 .5-.2 1.1-.3 1.7-.2.4 0 .7.2.8.4.1.2.3.4.4.7.1.3.2.6.2.9 0 .1.1.3.1.4.4.3.3.6-.1 1.2zM1913.6 252.3c1.1-.8 2.2-1.7 3.6-2.4.5-.3 1.1-.5 1.7-.7 1.1-.3 2.3.1 2.3.8 0 .1-.1.2-.2.3-.3.4-.7.7-1.3 1-.2.1-.3.2-.4.3-.3.4-.3.9-.2 1.3.2.5-.1.7-1 .9-.4.1-.8.2-1.1.4-.4.2-.8.3-1.2.2-.6-.2-1.3-.4-1.8-.7-.5-.2-.6-.6-.7-1 .1-.1.3-.3.3-.4zM1906.4 261.4c.4-.4 1-.8 1.9-1 .5-.1.8-.1 1.1.1.5.3.9.5 1 .9.1.3.5.4 1 .5l1.2.3c.2.1.4.1.5.2.5.3.4.6-.4.9-.4.1-.8.2-1.3.2-.5.1-1 .1-1.6.2-.7.1-1.2 0-1.7-.2-.3-.1-.6-.3-.8-.4-.2-.1-.2-.3-.3-.4-.1-.1-.2-.3-.4-.4-.4-.3-.5-.6-.2-.9zM1913 269.8l-.9-.3c-.4-.2-.8-.3-1.4-.3-.4 0-.9-.1-1.3-.1-.3 0-.4-.1-.3-.2.2-.4.8-.7 1.7-.7.9 0 1.5-.2 2-.5.6-.3 1.4-.5 2.3-.6.6-.1 1.1 0 1.5.2.4.2.3.4.1.6-.1.1-.3.3-.6.4-.4.2-.6.4-.7.7 0 .1-.1.2-.1.2-.4.5-1 .7-2.3.6zM1915.1 271.3c-.2.1-.3.3-.5.4-.4 0-.6-.2-.8-.3-.1-.1-.3-.2-.4-.3 0 .1-.1.2-.1.3-.1.1-.1.2-.2.3-.2-.1-.5-.1-.7-.2-.3-.2-.6-.4-.8-.6-.1-.1-.1-.2-.1-.3.1-.3.6-.3 1-.1.2.1.3.2.5.2.2.1.3.1.5 0 .1-.1.3-.2.5-.2.3-.1.8.1.9.3.1.2.1.3.2.5zM1905.5 263.3c-.2.2-.4.4-.6.5-.1.1-.3.2-.4.2-.2 0-.3-.1-.4-.2-.1-.1-.1-.2-.1-.3v-.7c0-.3.3-.4.9-.5.5 0 .9.1.8.4 0 .3-.1.4-.2.6zM1915.8 256.1c-.2.1-.3.3-.5.4-.3.2-.7.2-.8 0-.2-.3-.2-.5 0-.8.2-.3.4-.4.9-.4s.8.2.7.5c-.1 0-.2.1-.3.3zM1917.4 256.3l-.2.2c-.3.2-.6.2-.8 0-.3-.4-.2-.8.2-1.2.2-.1.7-.3 1-.2.1 0 .2.1.2.2 0 .3-.1.7-.4 1zM1906.8 264.5l-.9.6c-.2.1-.6.1-.6 0-.1-.3-.1-.6-.1-.9 0-.2.6-.5 1.1-.5.3 0 .5.1.5.2v.6zM1907.4 264.6c.3-.4.6-.5 1.1-.3.1 0 .3.1.3.2 0 .4-.2.8-.7 1.1-.1.1-.3.1-.5.1-.1 0-.3-.1-.3-.2-.1-.2-.1-.6.1-.9zM1914 255.6c-.3.2-.5.3-.8.5-.2.1-.4.1-.4 0-.1-.3-.1-.6-.1-.9 0-.2.3-.3.7-.4.4-.1.7 0 .8.2.1.2-.1.4-.2.6zM1912.3 254.8l-.6.3c-.2.1-.4.1-.4-.1 0-.3 0-.6.1-.9.1-.2.4-.4.7-.5.2-.1.4 0 .5.1.1.2 0 .5-.2.8 0 .2-.1.2-.1.3zM1909.5 265c.2-.3.7-.5 1-.4.4.1.6.3.3.5l-.9.9c-.1.1-.3.1-.4 0-.1-.3-.1-.7 0-1zM1919.2 261.1c.2-.1.4-.3.6-.4.3-.1.6-.1.7.1.1.2.1.4-.1.5-.2.2-.5.4-.8.6-.1 0-.3.1-.3.1-.1 0-.2-.1-.2-.2 0-.2.1-.4.1-.7zM1917.1 270.8v.1c-.1.1-.2.1-.3.2-.1-.1-.2-.1-.3-.2-.2-.1-.4-.3-.6-.4-.4-.3-.3-.6.2-.7.4-.1.7-.1.8.1.2.3.2.6.2.9zM1917.3 260.7c.3-.2.6-.3.9-.5.3-.1.6-.1.6.1 0 .1.1.2 0 .3-.2.2-.5.5-.8.7-.1.1-.5.1-.7-.1-.1-.1 0-.3 0-.5zM1923.8 261.3l.5-.5c.1-.1.3-.2.6-.1s.3.2.3.3c-.2.4-.5.7-1 .9-.1 0-.3.1-.4.1-.1 0-.2-.1-.2-.2 0-.2.1-.3.2-.5zM1919.6 255.3c-.1.1-.3.2-.4.2-.2.1-.3.1-.4-.1-.1-.2-.2-.4-.3-.7-.1-.2.2-.4.6-.4.4-.1.7 0 .7.2 0 .3-.1.5-.2.8zM1921.3 261.7c.2-.2.3-.4.6-.5.1-.1.3-.1.5-.1.1 0 .2.1.3.2.1.3-.1.5-.4.7-.1.1-.3.2-.5.2h-.5c-.1 0-.1-.1-.1-.2s.1-.2.1-.3zM1918.6 269.3c-.1.1-.3.3-.5.4h-.3c-.5-.2-.7-.8-.4-1 .1-.1.3-.2.6-.1.3 0 .5.1.5.3.1.1.1.2.1.4zM1911.9 264.1c.1-.1.5-.3.8-.3.3 0 .5.1.5.3 0 .3-.3.6-.9.8-.2.1-.5 0-.5-.1 0-.2.1-.4.1-.7zM1910.7 270.6c-.2.1-.3.2-.4.3-.2-.1-.4-.1-.5-.2-.2-.2-.2-.3-.3-.5 0-.1.1-.2.4-.2.3 0 .5 0 .6.2.1.1.1.2.2.4zM1917.4 259.4c.2-.1.5-.2.7-.3.2-.1.4 0 .4.1 0 .2-.3.4-.6.4-.1 0-.3 0-.4-.1-.1.1-.1 0-.1-.1z"/></g><g id="Tt89zW.tif_45_"><path class="st5" d="M1915.4 278.2c0 .2-.1.6-.5.9-.2.2-.5.3-.9.4-.5.1-.8.2-1.1.4-.4.4-1.2.5-2.4.3-.7-.1-1.5-.2-2.2-.3-.6-.1-1.1-.2-1.4-.5-.7-.8-.2-1.4 1.1-1.9.3-.1.7-.3 1.2-.3.4 0 .4-.1.1-.2h-.1c-.8-.2-1.3-.5-1.4-.9-.1-.4.1-.8.6-1.1.5-.3 1.2-.5 2.1-.5.6 0 1 .1 1.4.3.3.2.7.4 1 .6.4.3.7.6 1 .8.2.1.3.3.5.4.8.6 1 .9 1 1.6zM1892.6 273.4c.7-1 1.5-1.9 2.8-2.8.5-.3 1.1-.6 1.8-.9 1.3-.5 3.3-.2 3.9.4.1.1.1.2.1.4-.1.4-.3.8-.9 1.1-.2.1-.2.2-.2.4 0 .5.4.9.9 1.3.7.4.5.7-.5 1-.5.1-.9.3-1.2.5-.3.3-.8.4-1.5.3-1-.1-2.1-.2-3.1-.4-.9-.2-1.4-.5-1.9-.9-.2 0-.2-.2-.2-.4zM1892.7 283.4c0-.5.4-.9 1.2-1.3.5-.2.9-.2 1.5-.1.9.2 1.7.4 2.3.8.5.3 1.1.4 1.8.4.6 0 1.2.1 1.9.1.3 0 .6.1.8.2 1 .3 1.2.6.5.9-.3.2-.8.3-1.3.4-.6.1-1.2.2-1.7.4-.7.2-1.5.2-2.3 0l-1.5-.3c-.3-.1-.5-.2-.8-.3-.3-.1-.6-.2-1-.3-.8-.2-1.4-.5-1.4-.9zM1910.8 291.3c-.5-.1-1-.1-1.4-.2-.7-.1-1.4-.2-2.1-.2h-1.7c-.4 0-.6-.1-.7-.2-.3-.5 0-.8 1.1-1 1-.1 1.6-.4 1.8-.7.3-.4 1.1-.7 2-.9.7-.1 1.4-.1 2.1.1.7.2.9.4.9.6 0 .2-.1.3-.2.5-.2.2-.3.5-.1.8.1.1.1.2.2.3.2.5-.3.8-1.9.9zM1915.1 292.6c0 .2.1.4-.2.5-.4.1-.9-.1-1.3-.2-.3-.1-.6-.2-.8-.2.1.1.2.2.3.4.1.1.2.3.2.4-.3 0-.7-.1-1-.1-.6-.1-1.2-.3-1.7-.5-.2-.1-.4-.2-.5-.3-.2-.3.3-.4 1-.3.3.1.6.1.9.2.4.1.5.1.6-.1 0-.1.1-.2.3-.3.3-.1 1 0 1.4.2.3 0 .5.2.8.3zM1893.9 285.4c0 .2 0 .4-.1.6 0 .1-.2.2-.3.2-.2 0-.5 0-.7-.1-.2-.1-.3-.2-.4-.2-.3-.2-.6-.4-.8-.7-.3-.3-.2-.5.6-.6.6-.1 1.2 0 1.5.3 0 .2.1.4.2.5zM1899.2 276.9c-.1.2-.2.3-.3.5-.2.2-.7.3-1.1.1-.5-.2-.7-.5-.8-.8-.1-.3.1-.5.7-.5.6-.1 1.3.1 1.4.4.1 0 .1.1.1.3zM1901.6 276.9c0 .1 0 .1-.1.2-.2.2-.7.3-1 .1-.7-.3-1-.7-.8-1.2.1-.2.7-.4 1.1-.3.1 0 .3.1.4.1.2.4.4.7.4 1.1zM1896.9 286.5c-.1.2-.2.5-.4.7-.1.2-.5.2-.8 0-.4-.3-.9-.6-1.2-.9-.2-.2.2-.6.8-.6.3-.1.7 0 .9.1.2.2.4.5.7.7zM1897.8 286.6c-.1-.4.2-.6 1-.5.2 0 .5.1.6.2.5.4.7.8.5 1.2 0 .1-.2.2-.4.2-.1 0-.4-.1-.6-.1-.6-.3-.9-.7-1.1-1zM1896.4 276.7c-.2.2-.3.4-.6.6-.2.1-.4.1-.6 0-.4-.3-.7-.6-1-.9-.1-.2.1-.4.5-.4.4-.1.9-.1 1.2.1.5.1.5.3.5.6zM1893.3 276.1c-.1.1-.2.3-.4.4-.2.1-.5.1-.6 0-.3-.3-.6-.6-.8-.9-.1-.2.2-.4.5-.6.2-.1.5-.1.8.1.4.2.5.5.5.8v.2zM1900.8 286.7c-.1-.3.3-.5.8-.5s1 .2 1 .5 0 .7-.1 1c0 .2-.2.1-.5 0-.5-.3-.9-.7-1.2-1zM1908.6 281.5c.1-.2.2-.4.4-.5.2-.2.7-.2.9 0 .2.2.5.4.4.5 0 .2-.2.5-.4.7 0 .1-.2.1-.3.1-.2 0-.4-.1-.5-.2-.2-.1-.3-.3-.5-.6zM1916.8 291.8l.1.1c0 .1-.1.2-.2.2-.2 0-.4-.1-.6-.1-.4-.1-.8-.3-1.2-.4-.8-.2-1.1-.6-.6-.8.3-.1.7-.1 1.1 0 .7.4 1.1.7 1.4 1zM1905.8 281.3l.6-.6c.3-.2.6-.1.9 0 .1.1.3.2.3.3 0 .3-.1.6-.3.8-.1.1-.5.1-.9 0-.3-.1-.4-.2-.6-.5zM1914.4 281.1c0-.2.1-.4.2-.6.1-.1.2-.2.6-.2.4 0 .6.1.6.3.1.4.1.8-.4 1.1-.1.1-.3.1-.4.1-.1 0-.3-.1-.4-.2-.1-.2-.2-.3-.2-.5zM1903.4 275.6l-.3.3c-.2.1-.4.1-.6 0-.3-.2-.7-.4-1-.6-.2-.2-.1-.4.4-.5.4-.1 1-.1 1.1.1.3.2.4.4.4.7.1 0 0 0 0 0zM1911.8 281.9c0-.2.1-.4.2-.6 0-.1.3-.2.5-.2.1 0 .4.1.5.2.3.3.4.5.3.8-.1.1-.2.2-.4.3-.1 0-.4.1-.6 0-.1 0-.3-.1-.4-.2 0-.1 0-.2-.1-.3.1 0 0 0 0 0zM1916.8 290.1c0 .2 0 .3-.1.5 0 0-.3.1-.4.1-.7-.1-1.7-.7-1.6-1 0-.1.2-.2.6-.2.4 0 .7.1.9.2.3.1.4.2.6.4zM1902.8 285.5c0-.1.3-.3.6-.4.3 0 .7.1.9.2.4.3.3.6-.2.9-.2.1-.5.1-.7 0-.1-.2-.4-.4-.6-.7zM1909.1 292.4c0 .1-.1.2-.1.4-.3-.1-.7-.1-.9-.2-.4-.1-.7-.3-1-.5-.2-.1-.1-.2.2-.3.3-.1.7 0 .9.1.3.1.6.3.9.5zM1904.6 280c.2-.1.4-.3.6-.4.2-.1.5-.1.6.1.2.2 0 .4-.4.5h-.6l-.2-.2z"/></g></g><path class="st0" d="M1458.1 49.6c8.6-16.8 25.8-28.1 44.1-31.7 16.8-3.2 35-.4 49.5 8.9 13.5 8 23.5 21.8 26.6 37.3 11.7-3.1 23.9-5.7 36-3.4 16.5 2.5 32.7 11.3 41.5 25.9 4.3 6.7 6.1 14.6 6.6 22.4 11.4.4 23.2 2.8 32.5 9.7 5 4 9.3 10.2 8 17-1.3 8-8.4 13.4-15.2 16.7-17.1 7.7-37.7 7.2-54.4-1.2-11.8 5.4-24.9 7.5-37.8 6.3-9 15.5-25.4 26.1-43 29.2-21.5 4.6-44.8-2.4-60.7-17.6-15.6 8.1-34.8 9.3-51.2 2.7-12.6-5-23.6-15.1-27.8-28.2-3.7-11.6-1.1-24.8 6.4-34.3 8.3-11.1 21.6-17.6 35.1-19.7-3.5-13.2-2.8-27.8 3.8-40zM1337.8 456.5c6.4-12.5 19.1-20.8 32.6-23.5 12.5-2.3 25.9-.3 36.7 6.6 10 6 17.4 16.2 19.7 27.6 8.7-2.3 17.7-4.2 26.7-2.5 12.2 1.9 24.2 8.4 30.8 19.2 3.2 4.9 4.5 10.8 4.9 16.6 8.5.3 17.2 2.1 24.1 7.2 3.7 3 6.9 7.6 5.9 12.6-1 5.9-6.2 9.9-11.3 12.4-12.7 5.7-27.9 5.3-40.3-.9-8.8 4-18.4 5.6-28 4.7-6.7 11.5-18.8 19.3-31.8 21.6-16 3.4-33.2-1.8-45-13-11.6 6-25.8 6.9-37.9 2-9.3-3.7-17.5-11.2-20.6-20.9-2.8-8.6-.8-18.4 4.8-25.4 6.2-8.2 16-13 26-14.6-2.8-9.8-2.3-20.7 2.7-29.7z"/><path d="M1288.4 866.2c83.7-101.6 80.2-222.7 128.3-286.9 48.1-64.1 32.1-147.9 73-201.3s78.4-65.9 105.1-94.4 30.3 36.3 57 57.4 33.9 181.4 64.1 218.8c30.3 37.4 53.5 167.5 53.5 208.5s-481 97.9-481 97.9z" fill="#a2abbc"/><defs><path id="SVGID_29_" d="M1288.4 866.2c83.7-101.6 80.2-222.7 128.3-286.9 48.1-64.1 32.1-147.9 73-201.3s78.4-65.9 105.1-94.4 30.3 36.3 57 57.4 33.9 181.4 64.1 218.8c30.3 37.4 53.5 167.5 53.5 208.5s-481 97.9-481 97.9z"/></defs><clipPath id="SVGID_16_"><use xlink:href="#SVGID_29_" overflow="visible"/></clipPath><path d="M1284.5 778.2c161.8 9.1 406.8-136.8 492.2-138.1s-32.4 252.5-32.4 252.5l-619.9 23.8 160.1-138.2z" opacity=".1" clip-path="url(#SVGID_16_)"/><g class="st8"><path class="st9" d="M1514.7 417.2l14.3 49.9 16-28.5 17.8 57 30.3-78.4 10.7 39.2 19.6-24.9 24.9 64.1L1659 435l26.7 25.7c-10.1-52.9-18.9-108.1-33.9-119.8-26.7-21-30.3-85.9-57-57.4s-64.1 41-105.1 94.4c-13.4 17.5-20.7 38.3-26.2 60.5l26.2 42.8 25-64z"/></g><path id="SVGID_1_" d="M1849.7 911.6c43.5-99.6 51.6-370.3 101.9-464.3s117.5-60.2 137.2-39.5c19.8 20.7 85 227.5 85 227.5l19.8 293.3L2131 998l-281.3-86.4z" fill="#6c778c"/><defs><path id="SVGID_31_" d="M1849.7 911.6c43.5-99.6 51.6-370.3 101.9-464.3s117.5-60.2 137.2-39.5c19.8 20.7 85 227.5 85 227.5l19.8 293.3L2131 998l-281.3-86.4z"/></defs><clipPath id="SVGID_18_"><use xlink:href="#SVGID_31_" overflow="visible"/></clipPath><path d="M1875.5 613c161.1-18.4 316-1.5 358.9 99.7s-62.9 130.4-62.9 130.4l-331-95.1 35-135z" opacity=".1" clip-path="url(#SVGID_18_)"/><g class="st8"><path class="st9" d="M1954.8 499.2l14.3 39.2 25.9-42.8 13.3 32.1 26.7-32.1 28.5 42.8 16-51.7 23.2 51.7 10.7-39.2 21.7 19.6c-17.8-50.9-37-101.3-46.3-111-19.8-20.7-87-54.5-137.2 39.5-9.3 17.5-17.2 41-24.2 68.4l11.3 22.7 16.1-39.2z"/></g><defs><path id="SVGID_33_" d="M1954.8 499.2l14.3 39.2 25.9-42.8 13.3 32.1 26.7-32.1 28.5 42.8 16-51.7 23.2 51.7 10.7-39.2 21.7 19.6c-17.8-50.9-37-101.3-46.3-111-19.8-20.7-87-54.5-137.2 39.5-9.3 17.5-17.2 41-24.2 68.4l11.3 22.7 16.1-39.2z"/></defs><clipPath id="SVGID_20_"><use xlink:href="#SVGID_33_" overflow="visible"/></clipPath><path opacity=".8" clip-path="url(#SVGID_20_)" fill="#fff" d="M1945.3 431.3l42.2 4.6 34.1-4.6 27.2 8.6 23-4.3 19.2 4.3 10.5-6.7 2.9-21.7-46.7-43.1h-80.2l-37.5 18.4z"/><path class="st13" d="M2024 731.2c-14.3-51.7 0-276.2-41-317.1-1.4-1.4-2.8-3.1-4.1-4.9-9.4 9.3-18.6 21.8-27.3 38-50.3 94-58.4 364.7-101.9 464.3l68.1 20.9H2024c0 .1 14.2-149.6 0-201.2z"/><path class="st14" d="M1604.9 541.8l33.3-72.3-6.9-17.6zM1575.6 462.6l-7.2 101.1 28.7-131.9-4-14.6zM1514.7 417.2l-1.5 4 .8 145 21.8-111.3-6.8 12.2zM1474.3 456l9.7 102 7.2-80.2-1.4 3.6z"/><path d="M1537.9 909c90.9-158.6 82-418.7 103.3-523.8s69.5-183.5 94.4-228.1c24.9-44.5 89.1-39.9 131.8-20.8 42.8 19 39.2 213.2 80.2 254.2s26.7 265.5 41 317.1 0 201.3 0 201.3h-450.7v.1z" fill="#cacdd8"/><g><defs><path id="SVGID_35_" d="M1537.9 909c90.9-158.6 82-418.7 103.3-523.8s69.5-183.5 94.4-228.1c24.9-44.5 89.1-39.9 131.8-20.8 42.8 19 39.2 213.2 80.2 254.2s26.7 265.5 41 317.1 0 201.3 0 201.3h-450.7v.1z"/></defs><clipPath id="SVGID_22_"><use xlink:href="#SVGID_35_" overflow="visible"/></clipPath><path d="M1535.6 740.3c164.1-44.5 348.7-107.5 429.7-69.1 81.1 38.4 70.3 185.7 70.3 185.7l-423.4 82.8-133.2-52.5 56.6-146.9z" opacity=".1" clip-path="url(#SVGID_22_)"/></g><path class="st9" d="M2085.5 228.2c4.3-8.4 12.9-14.1 22-15.8 8.4-1.6 17.5-.2 24.8 4.4 6.8 4 11.8 10.9 13.3 18.7 5.8-1.6 12-2.9 18-1.7 8.3 1.3 16.4 5.7 20.8 12.9 2.1 3.3 3.1 7.3 3.3 11.2 5.7.2 11.6 1.4 16.3 4.9 2.5 2 4.7 5.1 4 8.5-.7 4-4.2 6.7-7.6 8.4-8.6 3.8-18.8 3.6-27.2-.6-5.9 2.7-12.5 3.8-18.9 3.2-4.5 7.8-12.7 13-21.5 14.6-10.8 2.3-22.4-1.2-30.4-8.8-7.8 4.1-17.4 4.6-25.6 1.3-6.3-2.5-11.8-7.5-13.9-14.1-1.9-5.8-.5-12.4 3.2-17.2 4.2-5.6 10.8-8.8 17.6-9.9-1.9-6.6-1.5-13.9 1.8-20z"/><g class="st8"><path class="st9" d="M1724.9 276.5v49.9l41.5-65.9 22.7 80.5 37.4-50.5 32.1 37.7 24.9-51.7 19.6 64.5 17-21.2c-15.5-72.2-22.8-170.3-52.6-183.5-42.8-19-106.9-23.7-131.8 20.8-16 28.5-41.5 71-63.4 125.5l11.7 33.1 40.9-39.2z"/></g><path d="M-194 770.4l187 294 1317 79 1097-215s96.9-488.1-154-507.7c-116.1-9.1-45.6 431.3-133.4 402.7-57.1-18.6-186.1-155.6-313.7-127.9-237.4 51.5-421.2 192.4-629 120s-415.8-70.2-567.3-18.6-316.6 91.7-474.3 87.8C22.1 881.8 0 746.5 0 522.3c-301.6-56.2-194 248.1-194 248.1z" fill-rule="evenodd" clip-rule="evenodd" fill="#f5f6fb"/><g><defs><path id="SVGID_37_" d="M1514.7 417.2l14.3 49.9 16-28.5 17.8 57 30.3-78.4 10.7 39.2 19.6-24.9 24.9 64.1L1659 435l26.7 25.7c-10.1-52.9-18.9-108.1-33.9-119.8-26.7-21-30.3-85.9-57-57.4s-64.1 41-105.1 94.4c-13.4 17.5-20.7 38.3-26.2 60.5l26.2 42.8 25-64z"/></defs><clipPath id="SVGID_24_"><use xlink:href="#SVGID_37_" overflow="visible"/></clipPath><path opacity=".6" clip-path="url(#SVGID_24_)" fill="#fff" d="M1529 319.2l14.4 25.3 24.6-8.4 12.1 8.4 29.5-6.3 27.1 2.3 13.3-7.5-5.4-52.1-40.9-20.7z"/></g><g><defs><path id="SVGID_39_" d="M1724.9 276.5v49.9l41.5-65.9 22.7 80.5 37.4-50.5 32.1 37.7 24.9-51.7 19.6 64.5 17-21.2c-15.5-72.2-22.8-170.3-52.6-183.5-42.8-19-106.9-23.7-131.8 20.8-16 28.5-41.5 71-63.4 125.5l11.7 33.1 40.9-39.2z"/></defs><clipPath id="SVGID_26_"><use xlink:href="#SVGID_39_" overflow="visible"/></clipPath><path opacity=".6" clip-path="url(#SVGID_26_)" fill="#fff" d="M1721.3 152.8l34.6 12.3 30.6-3.1 40.4 9.2 40.9-9.2 15.4 9.2 9.9-5.4v-49.3l-88.9-17.4-72.1 11.3z"/></g><g class="st29"><path d="M1800.3 325.8l-4.8 83.4 22.1-106.8zM1724.9 276.5l-28.4 27.1 7.8 128.5 20.6-146.6zM1766.4 260.4l-22.1 35.1 15.5 143.8 16.9-142.3zM1842.6 309.4l7.1 84.9 8.1-67.1zM1886 284.8l-7 89 14-66.2z"/></g><g class="st29"><path d="M2008.2 527.7l-13.2-32.1-1.2 2 13.3 73.7 3.3-46.2zM1973.8 530.6l6 53.5 6.5-74.1zM2035 495.6l-9.9 11.8 5.2 82.4 4.9-93.8zM2102.7 538.4l-23.2-51.7-.6 2 27.8 91.3v-56.6zM2063.5 538.4l-1.4-2.1 8.5 48.6v-69.4z"/></g><g><ellipse class="st30" cx="1832.3" cy="142.7" rx="18.5" ry="2.7"/><ellipse class="st30" cx="1781.3" cy="142.7" rx="18.5" ry="2.7"/><path class="st31" d="M1825.5 110.5c-.6 9.6 1.1 24.3-1.3 26s-4.1.8-5.3 2.5c-1.2 1.6-1.7 3.3-.9 3.3h17v-24.9l-9.5-6.9zM1767.5 104s6.2 31.2 5.3 32.7c-.9 1.6-3.5 1-4.3 3.7s-.5 1.8 1 1.8h5.1l10.1-.7v-7.7l-2.4-25.4-14.8-4.4z"/><path d="M1824.1 143.9c2.1-6 4.3-4.9 6-4.5 1.6.4 3.7-12.7 1.4-16-2.3-3.3-8.2-6.5-15.6-9.2s-12.5-4.2-14.4-4.2-2.4 8.6-3.3 16c-.9 7.4-2 17.2-5.8 17.9-3.8.6-19.1.8-19.1 0s1-3.2 3.1-3.6 4.3.1 3.9-3.2-3.5-22.5-3.5-24.8-.8 2-10.9-7-20.1-25-21.6-28.3c-1.4-3.3-3.1-9.2 0-14.8-5.1-2.5-2.1-7-.2-7.6 1.8-.6 3.3.6 4.5 1.6 3.5-2.9 17.6-2.2 20.6-1.4s2.8 2.4 4.7.1c1.8-2.2 6 .6 5.5 2.3-.4 1.6-1.4 3.3-2.3 4.3-.8 1 .8 1.6 8.2 1 7.4-.6 50.7-.4 55.8 0 5.1.4 4.7 2.7 6.4 2.5 1.8-.2 4.2-3.9 8.6.8 4.3 4.7-1.6 7.4-2.9 7.4-1.2 0 1.2 5.5 1 11.1-.2 5.5.6 14.2-1.2 28.7s-3.4 25.7-5.5 27.9-4.4 3.3-7.7 3.4-15.7-.4-15.7-.4z" fill="#e8e8e2"/><circle class="st33" cx="1769" cy="64.1" r="1.6"/><circle class="st33" cx="1752.9" cy="64.1" r="1.6"/><path class="st13" d="M1767.4 72.2c-.5-6-.5-8.1-3.8-9.3s-6.2-1-7.7 1.8-2.3 8.3-1.4 10.6c.9 2.3 3.2 4.7 6.3 4.7 3.1 0 7-2.9 6.6-7.8z"/><path class="st33" d="M1758.7 68.7c3-1.8 6 1.1 6 2.4s-1.2 3.8-3 3.8c-1.7 0-3.4 0-3.8-1.6s-1.9-2.9.8-4.6z"/><path d="M1757.1 76.6c.9 1.1 5.5 1.2 7.5.1l-7.5-.1z" fill="#1a3034" stroke="#1a3034" stroke-linecap="round" stroke-linejoin="round" stroke-miterlimit="10"/><path class="st13" d="M1774.3 57c1.2-1.8 2.3-.9 3.1-.4.8.5.5 2.6-1.1 3.3s-3.1-1.2-2-2.9zM1747.5 56.8c-1.3-1.3-3.3-.4-3.8.8s-.1 3.1 1.9 3.4c2.1.3 3.2-2.9 1.9-4.2z"/></g><circle class="st9" cx="1769.5" cy="63.6" r=".4"/><circle class="st9" cx="1753.4" cy="63.6" r=".4"/></svg>
