<svg xmlns="http://www.w3.org/2000/svg" width="883" height="1753" viewBox="0 0 883 1753">
  <g fill="none" fill-rule="evenodd">
    <path fill="#FFF" stroke="#E0E6F1" stroke-linecap="square" stroke-width="4" d="M869,504.372325 L869,1621.64452 C869,1690.88806 812.317345,1747 742.39491,1747 L138.60509,1747 C68.6985388,1747 12,1690.87532 12,1621.64452 L12,131.355475 C12,62.1119366 68.6826555,6 138.60509,6 L742.39491,6 C812.301461,6 869,62.1246795 869,131.355475 L869,380.134705 L868.187261,380.734238 C867.494747,381.245085 867.083146,382.037657 867.083146,382.893008 L867.083146,501.606992 C867.083146,502.474343 867.491983,503.264465 868.184103,503.772929 L869,504.372325 Z"/>
    <path stroke="#E0E6F1" stroke-linecap="round" stroke-width="3" d="M9.5,380.166032 L12.5,380.166032 L12.5,510.737153 L9.5,510.737153 L9.5,380.166032 Z M12.5,380.166032 L12.5,510.737153 L9.5,510.737153 L9.5,380.166032 L12.5,380.166032 Z M9.89018041,228 L12.8901804,228 L12.8901804,295.020654 L9.89018041,295.020654 L9.89018041,228 Z M12.8901804,228 L12.8901804,295.020654 L9.89018041,295.020654 L9.89018041,228 L12.8901804,228 Z M9.5,534.520513 L12.5,534.520513 L12.5,667 L9.5,667 L9.5,534.520513 Z M12.5,534.520513 L12.5,667 L9.5,667 L9.5,534.520513 L12.5,534.520513 Z"/>
    <path fill="#E0E6F1" d="M305.5 131C313.508833 131 320 124.732667 320 117 320 109.267333 313.508833 103 305.5 103 297.491167 103 291 109.267333 291 117 291 124.732667 297.491167 131 305.5 131L305.5 131zM377.5616 108C372.2816 108 368 112.218 368 117.5 368 122.74875 372.3104 127 377.5616 127L502.4384 127C507.7184 127 512 122.782 512 117.5 512 112.25125 507.6896 108 502.4384 108L377.5616 108 377.5616 108z"/>
    <path fill="#FFF" stroke="#E0E6F1" stroke-linecap="square" stroke-width="4" d="M440 1700C401.895627 1700 371 1669.33494 371 1631.5 371 1593.66506 401.895627 1563 440 1563 478.104373 1563 509 1593.66506 509 1631.5 509 1669.33494 478.104373 1700 440 1700zM70.6201923 189L801.379808 189C807.793335 189 813 194.191396 813 200.597122L813 1515.40288C813 1521.79692 807.790615 1527 801.379808 1527L70.6201923 1527C64.206665 1527 59 1521.8086 59 1515.40288L59 200.597122C59 194.203081 64.2093852 189 70.6201923 189z"/>
    <path stroke="#E0E6F1" stroke-linecap="round" stroke-width="3" d="M867.5,383 L870.5,383 L870.5,502 L867.5,502 L867.5,383 Z M870.5,383 L870.5,502 L867.5,502 L867.5,383 L870.5,383 Z"/>
  </g>
</svg>
